<svg width="924" height="288" viewBox="0 0 924 288" fill="none" xmlns="http://www.w3.org/2000/svg">
<path d="M228.403 226.794C226.255 213.455 228.188 184.95 228.188 184.95C228.188 184.95 232.376 207.431 240.752 210.658C254.174 190.113 262.013 165.48 262.013 139.018C261.906 66.7322 203.275 8 131.007 8C112.43 8 94.7114 11.8725 78.604 18.972C87.7315 16.3903 97.396 14.9919 107.383 14.9919C166.443 14.9919 214.336 62.9673 214.336 122.13C214.336 181.292 166.443 229.268 107.383 229.268C50.0403 229.268 3.22148 184.089 0.536913 127.293C0.214765 131.166 0 135.146 0 139.126C0 211.519 58.6309 270.251 130.899 270.251C156.134 270.251 179.651 263.152 199.624 250.781C209.826 264.55 230.658 282.514 272 288C240.752 264.55 230.872 242.284 228.403 226.794Z" fill="url(#paint0_linear_33_14)"/>
<path d="M34.4698 132.456C34.4698 86.3097 71.8389 48.9835 117.799 48.9835C149.691 48.9835 177.396 66.9474 191.463 93.3016C179.651 57.9117 146.255 32.418 107.06 32.418C98.792 32.418 90.7383 33.6012 83.1141 35.645C45.6376 46.1867 18.0403 80.6086 18.0403 121.592C18.0403 122.99 18.0403 124.496 18.1477 125.895C19.9732 163.328 44.7785 194.738 78.8188 206.141C52.4027 192.157 34.4698 164.404 34.4698 132.456Z" fill="#059669"/>
<path d="M335.136 223.721L292 71.3616H337.229L351.05 144.259L359.425 189.087H360.821L368.08 144.259L382.878 71.3616H436.762L451.699 144.259L458.958 189.506L460.354 189.367L468.73 144.259L482.55 71.3616H527.78L484.644 223.721H433.133L417.637 155.85L410.797 111.721H409.122L402.003 155.85L386.786 223.721H335.136Z" fill="white"/>
<path d="M585.691 225.397C577.036 225.397 569.172 223.767 562.099 220.509C555.119 217.25 549.581 212.456 545.487 206.125C541.392 199.794 539.344 192.02 539.344 182.803C539.344 173.586 541.206 165.998 544.928 160.04C548.744 154.081 553.909 149.426 560.424 146.075C566.938 142.63 574.29 140.07 582.48 138.394C587.971 137.277 593.601 136.346 599.371 135.601C605.234 134.856 610.725 134.251 615.844 133.786C621.055 133.32 625.476 132.948 629.105 132.668V128.479C629.105 118.796 627.477 112 624.219 108.09C621.055 104.18 615.471 102.224 607.468 102.224C602.349 102.224 598.022 102.923 594.485 104.319C591.042 105.716 588.436 108.229 586.668 111.86C584.993 115.491 584.202 120.658 584.295 127.362H543.253C542.136 113.955 544.23 102.923 549.535 94.2643C554.84 85.5129 562.611 79.0424 572.848 74.8529C583.085 70.5702 595.09 68.4289 608.864 68.4289C616.867 68.4289 624.638 69.3134 632.176 71.0823C639.715 72.7581 646.462 75.6908 652.418 79.8803C658.374 83.9767 663.074 89.6093 666.517 96.7781C670.054 103.947 671.822 113.024 671.822 124.01V223.721H628.826L629.105 188.11C627.43 198.351 623.242 207.149 616.542 214.504C609.934 221.766 599.65 225.397 585.691 225.397ZM600.069 196.628C604.629 196.628 608.957 195.791 613.052 194.115C617.24 192.346 620.776 189.972 623.661 186.993C626.546 183.92 628.361 180.522 629.105 176.798V152.778C625.383 153.337 621.614 153.942 617.798 154.594C613.982 155.245 610.632 155.943 607.747 156.688C598.44 158.736 592.066 161.576 588.622 165.207C585.179 168.745 583.457 173.4 583.457 179.172C583.457 182.803 584.062 185.922 585.272 188.529C586.575 191.135 588.483 193.137 590.995 194.534C593.508 195.93 596.533 196.628 600.069 196.628Z" fill="white"/>
<path d="M788.479 225.536C780.941 225.536 774.334 224.233 768.657 221.626C763.073 219.019 758.559 215.528 755.116 211.152C751.672 206.776 749.392 201.982 748.276 196.768H731.245L750.09 173.307C751.021 176.845 752.556 179.917 754.697 182.524C756.931 185.037 759.769 186.993 763.212 188.389C766.656 189.692 770.704 190.344 775.357 190.344C784.664 190.344 791.83 186.76 796.855 179.591C801.974 172.422 804.533 161.39 804.533 146.494C804.533 132.436 802.067 121.915 797.135 114.933C792.202 107.857 785.036 104.319 775.637 104.319C771.076 104.319 766.935 104.971 763.212 106.274C759.583 107.485 756.605 109.021 754.278 110.883C751.952 112.745 750.556 114.7 750.09 116.748V105.436C751.393 99.8504 753.115 94.7764 755.255 90.2145C757.489 85.6525 760.281 81.7889 763.631 78.6234C766.982 75.3649 770.937 72.8512 775.497 71.0823C780.15 69.3134 785.501 68.4289 791.551 68.4289C803.37 68.4289 813.467 71.6409 821.843 78.0648C830.219 84.4888 836.641 93.5661 841.108 105.297C845.668 116.934 847.948 130.667 847.948 146.494C847.948 159.062 846.505 170.234 843.62 180.01C840.735 189.786 836.641 198.072 831.336 204.868C826.124 211.571 819.889 216.692 812.63 220.229C805.371 223.767 797.321 225.536 788.479 225.536ZM706.815 280V71.3616H749.253L750.09 95.5212V183.501L748.276 196.768L750.09 223.86V280H706.815Z" fill="white"/>
<path d="M876.118 223.721V71.3616H919.393V223.721H876.118ZM897.895 53.9052C890.636 53.9052 884.447 51.3915 879.329 46.3641C874.21 41.2436 871.651 34.7265 871.651 26.813C871.651 18.8994 874.21 12.4755 879.329 7.54115C884.447 2.51372 890.636 0 897.895 0C905.061 0 911.204 2.51372 916.322 7.54115C921.441 12.4755 924 18.8994 924 26.813C924 34.7265 921.441 41.2436 916.322 46.3641C911.204 51.3915 905.061 53.9052 897.895 53.9052Z" fill="white"/>
<path d="M85.0267 146C82.2533 146 79.8889 145.067 77.9333 143.202C75.9778 141.302 75 138.884 75 135.948C75 133.012 75.9778 130.629 77.9333 128.798C79.8889 126.933 82.2533 126 85.0267 126C87.7645 126 90.1111 126.933 92.0667 128.798C94.0222 130.629 95 133.012 95 135.948C95 138.884 94.0222 141.302 92.0667 143.202C90.1111 145.067 87.7645 146 85.0267 146Z" fill="white"/>
<path d="M125.027 146C122.253 146 119.889 145.067 117.933 143.202C115.978 141.302 115 138.884 115 135.948C115 133.012 115.978 130.629 117.933 128.798C119.889 126.933 122.253 126 125.027 126C127.764 126 130.111 126.933 132.067 128.798C134.022 130.629 135 133.012 135 135.948C135 138.884 134.022 141.302 132.067 143.202C130.111 145.067 127.764 146 125.027 146Z" fill="white"/>
<path d="M165.027 146C162.253 146 159.889 145.067 157.933 143.202C155.978 141.302 155 138.884 155 135.948C155 133.012 155.978 130.629 157.933 128.798C159.889 126.933 162.253 126 165.027 126C167.764 126 170.111 126.933 172.067 128.798C174.022 130.629 175 133.012 175 135.948C175 138.884 174.022 141.302 172.067 143.202C170.111 145.067 167.764 146 165.027 146Z" fill="white"/>
<defs>
<linearGradient id="paint0_linear_33_14" x1="271.678" y1="287.677" x2="178.336" y2="192.661" gradientUnits="userSpaceOnUse">
<stop stop-color="#065F46"/>
<stop offset="1" stop-color="#059669"/>
</linearGradient>
</defs>
</svg>
