<svg width="512" height="512" viewBox="0 0 512 512" fill="none" xmlns="http://www.w3.org/2000/svg">
<path d="M432.8 264V248C437.216 248 440.8 244.418 440.8 240V192C440.8 187.582 437.216 184 432.8 184H389.6L388.05 177.99C384.514 164.245 379.017 151.081 371.728 138.902L368.528 133.55L399.2 102.825C402.288 99.7312 402.288 94.7184 399.2 91.6248L365.225 57.6C363.715 56.1602 361.709 55.357 359.623 55.357C357.537 55.357 355.531 56.1602 354.022 57.6L323.294 88.328L317.944 85.128C305.749 77.837 292.568 72.338 278.806 68.8L272.8 67.2376V24C272.8 19.5816 269.218 16 264.8 16H216.8C212.382 16 208.8 19.5816 208.8 24V67.2L202.79 68.7528C189.045 72.2885 175.879 77.7812 163.697 85.0624L158.344 88.2656L127.624 57.6C126.113 56.149 124.099 55.3387 122.004 55.3387C119.909 55.3387 117.895 56.149 116.384 57.6L82.4 91.5752C81.66 92.3132 81.0728 93.1899 80.6722 94.1552C80.2716 95.1204 80.0654 96.1553 80.0654 97.2004C80.0654 98.2455 80.2716 99.2804 80.6722 100.246C81.0728 101.211 81.66 102.088 82.4 102.826L113.128 133.55L109.928 138.903C102.64 151.082 97.1445 164.246 93.6097 177.991L92.0401 184H48.8C44.3816 184 40.8 187.582 40.8 192V240C40.8 244.418 44.3816 248 48.8 248V264C35.5472 264 24.8 253.253 24.8 240V192C24.8 178.747 35.5472 168 48.8 168H79.7529C83.0523 156.939 87.5149 146.258 93.0657 136.138L71.0657 114.138C66.5657 109.647 64.0376 103.554 64.0376 97.2C64.0376 90.8464 66.5657 84.7528 71.0657 80.2656L105.066 46.2656C114.538 37.2 129.472 37.2 138.944 46.2656L160.938 68.256C171.059 62.7112 181.739 58.2543 192.8 54.96V24C192.8 10.7472 203.547 0 216.8 0H264.8C278.053 0 288.8 10.7472 288.8 24V54.96C299.861 58.2576 310.541 62.7177 320.662 68.2656L342.662 46.2656C352.138 37.2 367.069 37.2 376.544 46.2656L410.538 80.256C412.764 82.4784 414.53 85.1181 415.735 88.0239C416.94 90.9298 417.56 94.0447 417.559 97.1904C417.56 100.337 416.94 103.452 415.735 106.359C414.531 109.265 412.764 111.905 410.538 114.128L388.538 136.128C394.084 146.254 398.545 156.937 401.847 168H432.8C446.053 168 456.8 178.747 456.8 192V240C456.8 253.253 446.053 264 432.8 264Z" fill="black"/>
<path d="M352.8 216H336.8C336.8 162.982 293.818 120 240.8 120C187.782 120 144.8 162.982 144.8 216H128.8C128.8 154.144 178.944 104 240.8 104C302.653 104 352.8 154.144 352.8 216Z" fill="black"/>
<path d="M240.8 280C214.29 280 192.8 258.506 192.8 232C192.8 205.49 214.29 184 240.8 184C267.312 184 288.8 205.49 288.8 232C288.772 258.5 267.3 279.972 240.8 280ZM240.8 200C223.128 200 208.8 214.328 208.8 232C208.8 249.672 223.128 264 240.8 264C258.472 264 272.8 249.672 272.8 232C272.8 214.328 258.472 200 240.8 200ZM376.8 312C350.29 312 328.8 290.506 328.8 264C328.8 237.49 350.29 216 376.8 216C403.31 216 424.8 237.49 424.8 264C424.772 290.5 403.3 311.972 376.8 312ZM376.8 232C359.128 232 344.8 246.328 344.8 264C344.8 281.672 359.128 296 376.8 296C394.472 296 408.8 281.672 408.8 264C408.8 246.328 394.472 232 376.8 232ZM104.8 312C78.2904 312 56.8 290.506 56.8 264C56.8 237.49 78.2904 216 104.8 216C131.312 216 152.8 237.49 152.8 264C152.772 290.5 131.3 311.972 104.8 312ZM104.8 232C87.128 232 72.8 246.328 72.8 264C72.8 281.672 87.128 296 104.8 296C122.472 296 136.8 281.672 136.8 264C136.8 246.328 122.472 232 104.8 232Z" fill="black"/>
<path d="M449.325 332.525C437.403 324.329 423.267 319.961 408.8 320H344.8C340.908 320.035 337.025 320.387 333.19 321.053C328.07 313.047 321.411 306.137 313.6 300.725C312.429 299.84 311.197 299.039 309.912 298.328C298.72 291.552 285.883 287.979 272.8 288H208.8C196.764 287.958 184.914 290.967 174.357 296.747C163.8 302.528 154.88 310.89 148.432 321.053C144.59 320.387 140.7 320.035 136.8 320H72.8C58.342 319.961 44.2146 324.324 32.2968 332.51C22.5974 339.109 14.6576 347.979 9.16824 358.347C3.67883 368.716 0.806119 380.268 0.800049 392V424C0.828049 445.844 13.5376 465.682 33.3784 474.832C40.7021 478.281 48.705 480.047 56.8 480H136.8V464H64.8V376H48.8V463.197C45.7886 462.592 42.8628 461.62 40.088 460.303C33.148 457.103 27.2679 451.985 23.1416 445.553C19.0153 439.121 16.8149 431.642 16.8 424V392C16.8097 382.87 19.0492 373.881 23.3239 365.813C27.5986 357.746 33.7791 350.845 41.328 345.71C50.59 339.354 61.567 335.967 72.8 336H136.8C138.21 336 139.568 336.15 140.944 336.244C138.237 343.873 136.836 351.905 136.8 360V440C136.828 462.082 154.722 479.972 176.8 480H200.8V352H184.8V464H176.8C163.547 464 152.8 453.253 152.8 440V360C152.8 329.069 177.875 304 208.8 304H272.8C283.093 304.007 293.183 306.856 301.96 312.232C302.772 312.675 303.551 313.174 304.294 313.725C311.789 318.857 317.942 325.717 322.231 333.725C326.543 341.812 328.798 350.835 328.8 360V440C328.8 453.253 318.053 464 304.8 464H296.8V352H280.8V480H304.8C326.882 479.972 344.772 462.082 344.8 440V360C344.763 351.905 343.364 343.875 340.662 336.244C342.041 336.15 343.4 336 344.8 336H408.8C420.042 335.969 431.026 339.361 440.294 345.725C447.836 350.862 454.01 357.762 458.281 365.826C462.551 373.89 464.789 382.875 464.8 392V424C464.786 431.667 462.572 439.17 458.42 445.616C454.268 452.062 448.354 457.181 441.378 460.366C438.646 461.658 435.765 462.61 432.8 463.198V376H416.8V464H344.8V480H424.8C432.846 480.051 440.802 478.306 448.088 474.894C467.994 465.772 480.768 445.897 480.8 424V392C480.794 380.273 477.923 368.724 472.438 358.359C466.952 347.994 459.018 339.125 449.325 332.525Z" fill="black"/>
<path d="M208.8 464H272.8V480H208.8V464Z" fill="black"/>
</svg>
