<svg width="512" height="512" viewBox="0 0 512 512" fill="none" xmlns="http://www.w3.org/2000/svg">
<path d="M236.9 236.9C234.2 234.2 234.2 229.7 236.9 227C239.6 224.3 244.1 224.3 246.8 227L292.5 272.7C323.6 247.8 363 239.6 399.9 248.1V212.9C399.9 209 403 205.9 406.9 205.9C410.8 205.9 413.9 209 413.9 212.9V252.2C426.1 256.5 437.6 262.7 448.1 270.6L446.9 265.8C446 262.1 448.3 258.3 452 257.4C455.7 256.5 459.5 258.8 460.4 262.5L467.1 289.7C468.3 294.8 463.6 299.6 458.2 298L431.5 290.2C424.4 288.1 425 277.8 432.3 276.6C395.3 252.9 347.5 252.4 309.7 277.4C265.2 306.8 247.7 363.1 267 412.3C268.4 415.9 266.6 419.9 263 421.3C259.4 422.7 255.3 420.9 254 417.3C253.5 416 253 414.7 252.6 413.4H211.8C207.9 413.4 204.8 410.3 204.8 406.4C204.8 402.5 207.9 399.4 211.8 399.4H248.5C243.4 377.2 244.4 354.2 251.2 332.9C257.2 314 267.6 296.4 282.1 281.9L236.9 236.9ZM476.2 330.2C474.8 326.6 476.6 322.6 480.2 321.2C483.8 319.8 487.9 321.6 489.2 325.2C510.9 380.5 491.2 443.8 441.2 476.8C396 506.6 337.4 504.1 295.1 472L296.3 476.8C297.2 480.5 294.9 484.3 291.2 485.2C287.5 486.1 283.7 483.8 282.8 480.1L276.1 452.9C274.8 447.8 279.6 443 285 444.6L311.7 452.4C318.8 454.5 318.1 464.8 310.8 466C372.9 505.8 456.3 476 478.7 405.4C486.4 381.1 485.8 354.6 476.2 330.2ZM371.6 330C394.4 330 412.9 348.5 412.9 371.3C412.9 394.1 394.4 412.6 371.6 412.6C348.8 412.6 330.3 394.1 330.3 371.3C330.3 348.5 348.8 330 371.6 330ZM390.9 352C373.8 334.9 344.3 347.1 344.3 371.3C344.3 395.5 373.7 407.8 390.9 390.6C401.5 379.9 401.5 362.6 390.9 352ZM359.3 283.5H384C387.9 283.5 391 286.6 391 290.5V301C396.8 302.6 402.4 304.9 407.6 307.9L415.1 300.4C417.8 297.7 422.2 297.7 425 300.4L442.5 317.9C445.2 320.6 445.2 325 442.5 327.8L435 335.3C437.9 340.5 440.3 346.1 441.9 351.9H452.4C456.3 351.9 459.4 355 459.4 358.9V383.6C459.4 387.5 456.3 390.6 452.4 390.6H441.9C440.3 396.4 438 402 435 407.2L442.5 414.7C445.2 417.4 445.2 421.9 442.5 424.6L425 442.1C422.3 444.8 417.8 444.8 415.1 442.1L407.6 434.6C402.4 437.6 396.8 439.9 391 441.5V452C391 455.9 387.9 459 384 459H359.3C355.4 459 352.3 455.9 352.3 452V441.5L343.8 438.6C341 437.4 338.3 436.1 335.7 434.6L328.2 442.1C325.5 444.8 321 444.8 318.3 442.1L300.8 424.6C298.1 421.9 298.1 417.4 300.8 414.7L308.3 407.2C305.4 402 303 396.4 301.4 390.6H290.9C287 390.6 283.9 387.5 283.9 383.6V358.9C283.9 355 287 351.9 290.9 351.9H301.4L304.3 343.4C305.5 340.6 306.8 337.9 308.3 335.3L300.8 327.8C298.1 325.1 298.1 320.6 300.8 317.9L318.3 300.4C321 297.7 325.5 297.7 328.2 300.4L335.7 307.9C340.9 304.9 346.5 302.6 352.3 301V290.5C352.3 286.6 355.4 283.5 359.3 283.5ZM377 297.5H366.3V306.2C366.5 309.7 364.1 312.8 360.6 313.5C353.5 314.8 344.7 318.2 338.9 322.4C336.2 324.5 332.2 324.3 329.7 321.8L323.3 315.4L315.7 323L322.1 329.4C324.5 331.7 324.9 335.5 323 338.3C320.8 341.6 318.8 345.1 317.3 348.9C315.9 352.4 314.7 356.1 314 359.9C313.6 363.4 310.6 366.1 307.1 366.1H298V376.8H307.1C310.4 376.8 313.3 379.1 314 382.5C315.3 389.6 318.7 398.3 322.9 404.2C325 406.9 324.9 410.9 322.3 413.4L315.9 419.8L323.5 427.3L329.9 420.9C332.2 418.6 336 418.1 338.8 420.1C342.1 422.3 345.6 424.2 349.3 425.8C352.8 427.2 356.5 428.4 360.3 429.1C363.8 429.5 366.5 432.5 366.5 436V445.1H377V436C377 432.7 379.4 429.8 382.7 429.1C389.8 427.7 398.6 424.4 404.4 420.2C407.1 418.1 411.1 418.3 413.6 420.8L420 427.2L427.6 419.7L421.2 413.3C418.8 410.9 418.5 407.2 420.3 404.4C424.3 398.5 428.2 389.9 429.3 382.9C429.7 379.4 432.7 376.7 436.3 376.7H445.4V366H436.3C433 366 430.1 363.7 429.4 360.3C428.1 353.2 424.7 344.5 420.5 338.6C418.4 335.9 418.5 331.9 421.1 329.4L427.5 323L419.9 315.4L413.5 321.8C411.2 324.1 407.4 324.6 404.6 322.6C398.7 318.6 390.1 314.7 383 313.6C379.5 313.2 376.8 310.2 376.8 306.7V297.5H377ZM101.9 497.6C72.2001 496.6 44.8001 481.2 28.5001 455.9C15.9001 436.3 10.7001 411.9 16.1001 387.3C21.4001 362.7 36.2001 342.6 55.8001 330C75.3001 317.4 99.6001 312.3 124 317.5C124.3 317.6 124.5 317.6 124.7 317.7C149.1 323.1 169.1 337.8 181.6 357.3C194.2 376.8 199.3 401.1 194.1 425.5C194 425.8 194 426 193.9 426.2C188.5 450.6 173.8 470.6 154.3 483.1C138.8 493.1 120.7 498.2 101.9 497.6ZM41.1001 449.5C50.1001 439.5 62.1001 432.8 75.5001 430.6C54.3001 413.1 52.7001 381.1 72.2001 361.6C90.4001 343.4 119.9 343.4 138.2 361.6C157.7 381.1 156.1 413 134.9 430.6C148.3 432.8 160.3 439.5 169.3 449.5C174.5 441.8 178.6 432.5 180.6 422.9C185.1 402.1 180.7 381.4 170.1 364.8C159.4 348.2 142.4 335.7 121.6 331.2C100.8 326.7 80.1001 331.1 63.5001 341.7C46.9001 352.4 34.4001 369.4 29.9001 390.2C25.4001 411 29.8001 431.7 40.4001 448.3C40.6001 448.7 40.8001 449.1 41.1001 449.5ZM160.2 460.5C151.7 450.1 139.1 443.9 125.3 443.9H84.9001C71.2001 443.9 58.5001 450.2 50.0001 460.5C79.9001 491.1 129.7 491.6 160.2 460.5ZM105.1 362C87.1001 362 72.4001 376.6 72.4001 394.7C72.4001 412.8 87.0001 427.3 105.1 427.3C123.1 427.3 137.7 412.7 137.7 394.7C137.7 376.7 123.1 362 105.1 362ZM404.9 196.5C374.8 195.8 346.8 180.4 330.3 154.7C317.7 135.2 312.6 111 317.8 86.5C317.9 86.3 317.9 86 318 85.8C323.4 61.4 338.1 41.4 357.6 28.9C377.1 16.3 401.3 11.2 425.8 16.4C426 16.4 426.3 16.5 426.5 16.5C450.9 21.9 470.9 36.6 483.4 56.1C496 75.7 501.2 100.1 495.8 124.7C486.6 167.8 448.2 197.3 404.9 196.5ZM342.9 148.3C351.9 138.4 363.9 131.6 377.3 129.4C356.1 111.9 354.5 79.9 374 60.4C392.2 42.2 421.7 42.2 440 60.4C459.5 79.9 457.9 111.8 436.7 129.4C450.1 131.6 462.1 138.3 471.1 148.3C476.3 140.4 480.3 131.5 482.4 121.7C486.9 100.9 482.5 80.2 471.9 63.6C461 47.1 444 34.6 423.2 30.1C402.4 25.6 381.7 30 365.1 40.6C348.7 51.2 335.9 68.4 331.5 89.1C327 109.9 331.4 130.6 342 147.2C342.4 147.6 342.6 148 342.9 148.3ZM462 159.4C453.5 149 440.9 142.8 427.1 142.8H386.6C372.9 142.8 360.2 149 351.7 159.4C381.8 190 431.6 190.4 462 159.4ZM406.9 60.9C388.9 60.9 374.2 75.5 374.2 93.5C374.2 111.5 388.8 126.2 406.9 126.2C425 126.2 439.5 111.6 439.5 93.5C439.6 75.5 425 60.9 406.9 60.9ZM130.9 260.2C91.5001 258.2 55.3001 237.6 33.6001 203.9C16.5001 177.5 9.60006 144.5 16.8001 111.3C24.0001 78.2 44.0001 51 70.4001 34C96.8001 17 129.8 10 163 17.2C196.2 24.4 223.3 44.4 240.4 70.8C257.4 97.3 264.4 130.2 257.2 163.4C244.3 222.7 190.3 263.2 130.9 260.2ZM48.4001 200.9C62.0001 184.5 81.5001 174 103 172.4C70.5001 150.9 65.7001 105 93.4001 77.3C117.5 53.2 156.5 53.2 180.6 77.3C208.3 105 203.5 150.9 171 172.4C192.5 174.1 212.1 184.5 225.6 200.9C234 189.1 240.3 175.4 243.5 160.4C249.9 131 243.7 101.8 228.6 78.3C213.5 54.9 189.5 37.2 160 30.8C130.6 24.4 101.4 30.6 77.9001 45.7C54.5001 60.8 36.8001 84.8 30.4001 114.3C24.0001 143.7 30.2001 172.9 45.3001 196.4C46.4001 197.9 47.4001 199.4 48.4001 200.9ZM174.6 239.7C190.5 233.8 204.9 224.3 216.5 211.9C204.4 195.9 185.4 186.1 164.9 186.1H109.1C88.6001 186.1 69.6001 195.9 57.5001 211.9C72.4001 227.7 91.5001 239 113.9 243.8C132.8 247.9 151.5 246.8 168.7 241.6L174.6 239.7ZM137 73.2C123.8 73.2 111.9 78.6 103.3 87.2C84.7001 105.8 84.7001 136 103.3 154.6C121.9 173.2 152.1 173.2 170.7 154.6C189.3 136 189.3 105.8 170.7 87.2C162.1 78.5 150.2 73.2 137 73.2Z" fill="black"/>
</svg>
