<svg width="512" height="512" viewBox="0 0 512 512" fill="none" xmlns="http://www.w3.org/2000/svg">
<g clip-path="url(#clip0_106_427)">
<path d="M54.124 272.9C52.8112 271.587 52.0736 269.807 52.0736 267.95C52.0736 266.093 52.8112 264.313 54.124 263C55.4368 261.687 57.2174 260.95 59.074 260.95C60.9306 260.95 62.7112 261.687 64.024 263L66.018 264.994L77.99 253.021C79.3028 251.708 81.0834 250.971 82.94 250.971C84.7966 250.971 86.5772 251.708 87.89 253.021C89.2028 254.334 89.9404 256.114 89.9404 257.971C89.9404 259.828 89.2028 261.608 87.89 262.921L70.97 279.844C70.32 280.494 69.5483 281.01 68.699 281.362C67.8496 281.713 66.9393 281.894 66.02 281.894C65.1007 281.894 64.1904 281.713 63.341 281.362C62.4917 281.01 61.72 280.494 61.07 279.844L54.124 272.9ZM105.932 340.686V396.5C105.932 398.357 105.194 400.137 103.882 401.45C102.569 402.762 100.789 403.5 98.932 403.5H43.116C41.2595 403.5 39.479 402.762 38.1663 401.45C36.8535 400.137 36.116 398.357 36.116 396.5V340.686C36.116 338.829 36.8535 337.049 38.1663 335.736C39.479 334.424 41.2595 333.686 43.116 333.686H98.93C99.8494 333.686 100.76 333.867 101.609 334.218C102.459 334.57 103.231 335.085 103.881 335.736C104.531 336.386 105.047 337.157 105.399 338.007C105.751 338.856 105.932 339.767 105.932 340.686ZM91.932 347.686H50.117V389.5H91.929L91.932 347.686ZM105.932 136.332V192.147C105.932 194.004 105.194 195.784 103.882 197.097C102.569 198.409 100.789 199.147 98.932 199.147H43.116C41.2595 199.147 39.479 198.409 38.1663 197.097C36.8535 195.784 36.116 194.004 36.116 192.147V136.334C36.116 134.477 36.8535 132.697 38.1663 131.384C39.479 130.071 41.2595 129.334 43.116 129.334H98.93C99.8494 129.334 100.76 129.515 101.609 129.866C102.459 130.218 103.231 130.733 103.881 131.384C104.531 132.034 105.047 132.805 105.399 133.655C105.751 134.504 105.932 135.415 105.932 136.334V136.332ZM91.932 143.332H50.117V185.143H91.929L91.932 143.332ZM61.068 382.005C61.718 382.655 62.4897 383.171 63.3391 383.523C64.1884 383.874 65.0987 384.055 66.018 384.055C66.9373 384.055 67.8476 383.874 68.6969 383.523C69.5463 383.171 70.318 382.655 70.968 382.005L87.891 365.082C88.541 364.432 89.0567 363.66 89.4085 362.811C89.7603 361.962 89.9414 361.051 89.9414 360.132C89.9414 359.213 89.7603 358.302 89.4085 357.453C89.0567 356.604 88.541 355.832 87.891 355.182C87.241 354.532 86.4692 354.016 85.6199 353.664C84.7706 353.313 83.8603 353.132 82.941 353.132C82.0217 353.132 81.1114 353.313 80.2621 353.664C79.4128 354.016 78.641 354.532 77.991 355.182L66.02 367.153L64.026 365.159C62.7132 363.846 60.9326 363.109 59.076 363.109C57.2194 363.109 55.4388 363.846 54.126 365.159C52.8132 366.472 52.0756 368.252 52.0756 370.109C52.0756 371.966 52.8132 373.746 54.126 375.059L61.068 382.005ZM61.068 177.654C61.718 178.304 62.4897 178.82 63.3391 179.172C64.1884 179.523 65.0987 179.704 66.018 179.704C66.9373 179.704 67.8476 179.523 68.6969 179.172C69.5463 178.82 70.318 178.304 70.968 177.654L87.891 160.731C88.541 160.081 89.0567 159.309 89.4085 158.46C89.7603 157.611 89.9414 156.7 89.9414 155.781C89.9414 154.862 89.7603 153.951 89.4085 153.102C89.0567 152.253 88.541 151.481 87.891 150.831C87.241 150.181 86.4692 149.665 85.6199 149.313C84.7706 148.962 83.8603 148.781 82.941 148.781C82.0217 148.781 81.1114 148.962 80.2621 149.313C79.4128 149.665 78.641 150.181 77.991 150.831L66.02 162.8L64.026 160.806C62.7132 159.493 60.9326 158.756 59.076 158.756C57.2194 158.756 55.4388 159.493 54.126 160.806C52.8132 162.119 52.0756 163.899 52.0756 165.756C52.0756 167.613 52.8132 169.393 54.126 170.706L61.068 177.654ZM105.932 238.525V294.339C105.932 296.196 105.194 297.976 103.882 299.289C102.569 300.602 100.789 301.339 98.932 301.339H43.116C41.2595 301.339 39.479 300.602 38.1663 299.289C36.8535 297.976 36.116 296.196 36.116 294.339V238.525C36.116 236.668 36.8535 234.888 38.1663 233.575C39.479 232.262 41.2595 231.525 43.116 231.525H98.93C99.8494 231.525 100.76 231.706 101.609 232.057C102.459 232.409 103.231 232.924 103.881 233.575C104.531 234.225 105.047 234.996 105.399 235.846C105.751 236.695 105.932 237.606 105.932 238.525ZM91.932 245.525H50.117V287.335H91.929L91.932 245.525ZM358.77 388.878L333.159 374.09V302.871C333.159 301.014 332.421 299.234 331.109 297.921C329.796 296.609 328.016 295.871 326.159 295.871C324.302 295.871 322.522 296.609 321.209 297.921C319.897 299.234 319.159 301.014 319.159 302.871V378.132C319.159 379.361 319.482 380.569 320.096 381.633C320.711 382.697 321.595 383.581 322.659 384.196L351.771 401.005C352.567 401.465 353.446 401.763 354.358 401.883C355.269 402.003 356.196 401.942 357.084 401.704C357.972 401.466 358.804 401.055 359.534 400.495C360.263 399.936 360.875 399.238 361.335 398.441C361.794 397.645 362.092 396.766 362.212 395.855C362.332 394.943 362.271 394.017 362.033 393.129C361.795 392.241 361.385 391.408 360.825 390.679C360.265 389.95 359.567 389.338 358.771 388.878H358.77ZM510.741 201.023C510.549 202.402 509.951 203.692 509.022 204.729C508.094 205.765 506.877 206.502 505.528 206.844L484.956 212.044C482.572 220.725 479.119 229.076 474.676 236.906L485.55 255.116C486.268 256.316 486.61 257.704 486.532 259.1C486.454 260.496 485.96 261.837 485.113 262.95C477.757 272.617 469.128 281.245 459.46 288.6C458.347 289.446 457.006 289.94 455.61 290.018C454.214 290.096 452.826 289.754 451.626 289.037L433.417 278.162C425.584 282.607 417.228 286.062 408.543 288.445L407.043 294.37C418.167 304.987 427.079 317.702 433.263 331.781C439.448 345.86 442.782 361.025 443.075 376.4C443.368 391.774 440.613 407.055 434.969 421.359C429.325 435.664 420.904 448.709 410.192 459.742C399.48 470.774 386.69 479.576 372.558 485.64C358.426 491.703 343.234 494.908 327.857 495.069C312.48 495.23 297.224 492.344 282.968 486.577C268.713 480.811 255.74 472.278 244.8 461.472H7C5.14349 461.472 3.36301 460.735 2.05025 459.422C0.737499 458.109 8.77232e-07 456.329 8.77232e-07 454.472V106.854C-0.000459698 105.934 0.180447 105.023 0.532375 104.173C0.884304 103.323 1.40035 102.55 2.051 101.9L84.568 19.385C85.8813 18.0722 87.6621 17.3345 89.519 17.334H337.919C339.776 17.334 341.556 18.0715 342.869 19.3842C344.181 20.697 344.919 22.4775 344.919 24.334V78.892C346.657 78.3131 348.411 77.7796 350.177 77.292L355.367 56.7C355.708 55.3445 356.446 54.1221 357.487 53.19C358.529 52.2579 359.825 51.6589 361.21 51.47C373.257 49.823 385.473 49.823 397.52 51.47C398.904 51.6592 400.2 52.2582 401.241 53.1901C402.282 54.122 403.02 55.344 403.361 56.699L408.546 77.282C417.227 79.6653 425.578 83.1177 433.408 87.56L451.637 76.684C452.835 75.9704 454.219 75.6309 455.611 75.7089C457.003 75.787 458.34 76.279 459.451 77.122C469.126 84.4741 477.758 93.1052 485.112 102.779C485.96 103.892 486.454 105.233 486.532 106.63C486.611 108.027 486.268 109.415 485.55 110.615L474.676 128.824C479.12 136.654 482.573 145.005 484.957 153.687L505.528 158.887C506.877 159.229 508.094 159.966 509.023 161.003C509.951 162.04 510.549 163.33 510.741 164.709C512.42 176.755 512.42 188.977 510.741 201.023ZM23.906 99.852H82.517V41.24L23.906 99.852ZM14 447.468H232.554C220.809 431.683 213.276 413.169 210.662 393.668H127.816C125.959 393.668 124.179 392.93 122.866 391.618C121.553 390.305 120.816 388.524 120.816 386.668C120.816 384.811 121.553 383.031 122.866 381.718C124.179 380.406 125.959 379.668 127.816 379.668H209.643C209.637 379.158 209.624 378.649 209.624 378.137C209.627 371.227 210.244 364.33 211.467 357.529H127.816C125.959 357.529 124.179 356.792 122.866 355.479C121.553 354.166 120.816 352.386 120.816 350.529C120.816 348.672 121.553 346.892 122.866 345.579C124.179 344.266 125.959 343.529 127.816 343.529H214.877C221.154 323.486 232.721 305.507 248.358 291.485H127.816C125.959 291.485 124.179 290.748 122.866 289.435C121.553 288.122 120.816 286.342 120.816 284.485C120.816 282.628 121.553 280.848 122.866 279.535C124.179 278.222 125.959 277.485 127.816 277.485H267.575C271.684 275.079 275.937 272.927 280.31 271.042C277.987 268.433 275.763 265.738 273.644 262.961C272.828 261.886 272.341 260.598 272.241 259.252C272.141 257.906 272.433 256.56 273.082 255.376H127.816C125.959 255.376 124.179 254.638 122.866 253.326C121.553 252.013 120.816 250.233 120.816 248.376C120.816 246.519 121.553 244.739 122.866 243.426C124.179 242.113 125.959 241.376 127.816 241.376H281.416L284.079 236.912C279.636 229.08 276.183 220.727 273.8 212.044L266.745 210.281L253.2 206.844C251.848 206.501 250.629 205.763 249.7 204.723C248.77 203.683 248.173 202.389 247.984 201.007C247.46 197.127 247.106 193.226 246.923 189.315H127.816C125.959 189.315 124.179 188.577 122.866 187.265C121.553 185.952 120.816 184.172 120.816 182.315C120.816 180.458 121.553 178.678 122.866 177.365C124.179 176.052 125.959 175.315 127.816 175.315H246.981C247.181 171.778 247.504 168.245 247.981 164.728C248.17 163.346 248.767 162.052 249.697 161.012C250.626 159.971 251.845 159.233 253.197 158.89L273.797 153.69C273.844 153.518 273.897 153.348 273.947 153.176H127.816C125.959 153.176 124.179 152.438 122.866 151.126C121.553 149.813 120.816 148.032 120.816 146.176C120.816 144.319 121.553 142.539 122.866 141.226C124.179 139.913 125.959 139.176 127.816 139.176H278.932C280.462 135.643 282.179 132.194 284.075 128.843L273.2 110.608C272.487 109.412 272.147 108.03 272.224 106.639C272.3 105.249 272.79 103.913 273.63 102.802C280.972 93.1035 289.615 84.4615 299.313 77.119C300.425 76.2778 301.762 75.7876 303.154 75.7114C304.546 75.6351 305.929 75.9762 307.126 76.691L325.344 87.566C327.174 86.5267 329.032 85.544 330.919 84.618V31.338H96.52V106.854C96.52 108.71 95.7825 110.491 94.4697 111.804C93.157 113.116 91.3765 113.854 89.52 113.854H14V447.468ZM326.157 275.631C298.978 275.658 272.919 286.464 253.697 305.68C234.476 324.896 223.662 350.952 223.627 378.131C223.627 380.731 223.724 383.305 223.917 385.852C223.93 385.97 223.937 386.089 223.944 386.208C225.511 406.078 232.837 425.06 245.024 440.831C257.212 456.603 273.732 468.479 292.564 475.008C311.397 481.536 331.723 482.433 351.057 477.589C370.392 472.745 387.894 462.37 401.424 447.734C414.953 433.097 423.922 414.834 427.234 395.18C430.545 375.525 428.056 355.331 420.069 337.07C412.083 318.808 398.946 303.271 382.267 292.359C365.587 281.447 346.089 275.634 326.157 275.631ZM497.424 171.278L477.5 166.256C476.252 165.943 475.114 165.292 474.212 164.375C473.309 163.457 472.677 162.309 472.385 161.056C470.039 150.962 466.052 141.321 460.585 132.517C459.907 131.427 459.542 130.171 459.53 128.888C459.518 127.604 459.859 126.342 460.516 125.239L471.053 107.579C466.131 101.599 460.642 96.1086 454.664 91.184L437.018 101.721C435.914 102.381 434.65 102.724 433.364 102.714C432.079 102.703 430.82 102.338 429.728 101.66C420.924 96.1922 411.283 92.2059 401.189 89.86C399.938 89.5689 398.791 88.9391 397.873 88.0396C396.956 87.14 396.304 86.0054 395.989 84.76L390.959 64.8C383.247 64.052 375.481 64.052 367.769 64.8L362.738 84.756C362.423 86.0005 361.772 87.1345 360.856 88.034C359.941 88.9335 358.795 89.5638 357.545 89.856C347.46 92.2065 337.828 96.1926 329.031 101.656C327.94 102.334 326.684 102.699 325.399 102.71C324.115 102.722 322.852 102.38 321.749 101.722L304.085 91.185C301.101 93.636 298.218 96.251 295.476 98.992C292.734 101.733 290.141 104.592 287.694 107.576L298.235 125.228C298.895 126.331 299.239 127.596 299.228 128.882C299.218 130.168 298.853 131.426 298.174 132.518C292.707 141.322 288.72 150.963 286.374 161.057C286.081 162.311 285.449 163.46 284.545 164.377C283.642 165.294 282.503 165.945 281.254 166.257L261.315 171.275C260.959 174.942 260.774 178.614 260.76 182.291V182.349C260.741 186.391 260.927 190.432 261.316 194.456L281.254 199.473C282.503 199.785 283.642 200.435 284.546 201.353C285.449 202.27 286.082 203.419 286.375 204.673C288.721 214.767 292.708 224.408 298.175 233.212C298.854 234.304 299.219 235.562 299.229 236.848C299.24 238.134 298.896 239.399 298.236 240.502L291.558 251.685C291.53 251.737 291.496 251.785 291.466 251.839L287.699 258.147C289.918 260.846 292.253 263.447 294.699 265.942C311.737 261.169 329.639 260.342 347.044 263.525C364.449 266.708 380.9 273.816 395.146 284.31L395.99 280.968C396.305 279.723 396.957 278.588 397.874 277.688C398.792 276.789 399.939 276.159 401.19 275.868C411.284 273.522 420.925 269.536 429.729 264.068C430.818 263.392 432.073 263.028 433.355 263.016C434.637 263.004 435.898 263.344 437 264L454.664 274.538C460.636 269.611 466.123 264.125 471.049 258.153L460.511 240.489C459.854 239.386 459.513 238.124 459.525 236.84C459.537 235.557 459.902 234.301 460.58 233.211C466.047 224.407 470.034 214.766 472.38 204.672C472.672 203.419 473.305 202.27 474.207 201.353C475.11 200.436 476.248 199.785 477.496 199.472L497.421 194.451C498.186 186.746 498.187 178.984 497.424 171.278ZM438.2 124.041C453.765 139.661 462.504 160.813 462.504 182.864C462.504 204.915 453.765 226.067 438.2 241.687C426.565 253.324 411.74 261.25 395.6 264.462C379.461 267.673 362.731 266.027 347.527 259.73C332.324 253.433 319.329 242.769 310.186 229.087C301.043 215.404 296.163 199.318 296.163 182.861C296.163 166.405 301.043 150.319 310.186 136.636C319.329 122.954 332.324 112.29 347.527 105.993C362.731 99.6964 379.461 98.0497 395.6 101.261C411.74 104.473 426.565 112.399 438.2 124.036V124.041ZM428.3 133.941C418.624 124.265 406.296 117.676 392.876 115.006C379.455 112.337 365.544 113.707 352.902 118.943C340.26 124.18 329.454 133.048 321.852 144.425C314.25 155.803 310.192 169.179 310.192 182.863C310.192 196.547 314.25 209.923 321.852 221.301C329.454 232.678 340.26 241.546 352.902 246.782C365.544 252.019 379.455 253.389 392.876 250.72C406.296 248.05 418.624 241.461 428.3 231.785C434.777 225.39 439.92 217.773 443.43 209.375C446.94 200.977 448.748 191.965 448.748 182.863C448.748 173.761 446.94 164.749 443.43 156.351C439.92 147.953 434.777 140.336 428.3 133.941Z" fill="black"/>
</g>
<defs>
<clipPath id="clip0_106_427">
<rect width="512" height="512" fill="white"/>
</clipPath>
</defs>
</svg>
