<svg width="512" height="512" viewBox="0 0 512 512" fill="none" xmlns="http://www.w3.org/2000/svg">
<g clip-path="url(#clip0_106_431)">
<path d="M314.98 226.348V186.344H194.969V326.357H235.473M154.466 195.495V286.353H194.969M154.466 180.494V146.341H274.476V186.344M413.839 97.7697C401.399 97.7697 391.315 87.6858 391.315 75.2457V64.3057C391.315 51.8656 401.399 41.7817 413.839 41.7817C426.279 41.7817 436.363 51.8656 436.363 64.3057V75.2457C436.364 87.6858 426.279 97.7697 413.839 97.7697Z" stroke="black" stroke-width="15.0013" stroke-miterlimit="10"/>
<path d="M426.544 92.4231C435.679 96.4865 457.59 112.131 457.59 129.752C457.59 136.752 451.916 142.427 444.916 142.427H382.762C375.762 142.427 370.088 136.752 370.088 129.752C370.088 112.134 391.997 96.4885 401.135 92.4221" stroke="black" stroke-width="15.0013" stroke-miterlimit="10"/>
<path d="M413.838 187.995C463.548 187.995 503.846 147.697 503.846 97.9867C503.846 48.2767 463.548 7.97876 413.838 7.97876C364.128 7.97876 323.83 48.2767 323.83 97.9867C323.83 147.697 364.128 187.995 413.838 187.995Z" stroke="black" stroke-width="15.0013" stroke-miterlimit="10"/>
<path d="M97.8126 413.797C85.3725 413.797 75.2886 403.714 75.2886 391.274V380.334C75.2886 367.893 85.3725 357.81 97.8126 357.81C110.253 357.81 120.337 367.893 120.337 380.334V391.274C120.337 403.714 110.252 413.797 97.8126 413.797Z" stroke="black" stroke-width="15.0013" stroke-miterlimit="10"/>
<path d="M110.517 408.451C119.652 412.514 141.562 428.159 141.562 445.78C141.562 452.78 135.888 458.454 128.888 458.454H66.7329C59.7333 458.454 54.0588 452.78 54.0588 445.78C54.0588 428.162 75.9687 412.516 85.1065 408.45" stroke="black" stroke-width="15.0013" stroke-miterlimit="10"/>
<path d="M97.8106 504.022C147.521 504.022 187.819 463.724 187.819 414.014C187.819 364.305 147.521 324.007 97.8106 324.007C48.1006 324.007 7.8027 364.305 7.8027 414.014C7.8027 463.724 48.1006 504.022 97.8106 504.022Z" stroke="black" stroke-width="15.0013" stroke-miterlimit="10"/>
<path d="M44.956 273.622C44.4959 267.922 44.2559 262.161 44.2559 256.351C44.2559 139.7 138.824 45.1321 255.474 45.1321C282.617 45.1321 308.569 50.2525 332.411 59.5834M465.963 238.659C466.443 244.49 466.693 250.39 466.693 256.351C466.693 373.001 372.125 467.569 255.474 467.569C228.452 467.569 202.6 462.489 178.848 453.228" stroke="black" stroke-width="15.0013" stroke-miterlimit="10"/>
<path d="M330.271 366.36H355.483V266.351L315.48 226.348H235.473V366.36H315.27" stroke="black" stroke-width="15.0013" stroke-miterlimit="10"/>
<path d="M355.483 266.351H315.48V226.348M85.3105 236.452L45.307 276.455L5.30348 236.452M506.697 276.455L466.693 236.452L426.689 276.455M272.976 308.355H287.977M302.979 308.355H317.98" stroke="black" stroke-width="15.0013" stroke-miterlimit="10"/>
</g>
<defs>
<clipPath id="clip0_106_431">
<rect width="512" height="512" fill="white"/>
</clipPath>
</defs>
</svg>
