<svg width="512" height="512" viewBox="0 0 512 512" fill="none" xmlns="http://www.w3.org/2000/svg">
<path d="M498.922 305.465C494.203 297.587 474.834 274.193 423.702 303.971L333.548 356.482C329.028 359.114 324.432 360.973 319.634 362.082C321.411 359.232 322.805 356.007 323.761 352.438C328.369 335.236 318.146 317.278 300.486 311.552C300.143 311.442 299.793 311.354 299.439 311.289C273.529 306.616 247.957 297.371 227.409 289.942C220.269 287.361 213.525 284.922 207.791 283.063C184.712 275.579 163.845 284.845 146.477 294.9L79.404 333.734L73.08 322.56C70.289 317.627 65.73 314.074 60.244 312.553C54.76 311.032 49.021 311.733 44.088 314.524L18.792 328.84C8.58397 334.616 4.97897 347.622 10.756 357.832L85.124 489.234C89.033 496.141 96.251 500.025 103.673 500.025C107.221 500.025 110.816 499.137 114.116 497.269L139.411 482.953C144.344 480.162 147.897 475.603 149.418 470.117C150.939 464.632 150.239 458.893 147.447 453.961L139.78 440.413L155.07 431.586L270.54 462.526C277.062 464.274 283.463 465.146 289.727 465.146C302.215 465.146 314.154 461.676 325.388 454.76L488.997 354.017C503.91 344.836 508.641 321.693 498.922 305.465ZM133.999 465.845C133.818 466.513 133.507 467.138 133.083 467.685C132.659 468.232 132.131 468.69 131.529 469.031L106.234 483.347C103.745 484.755 100.456 483.843 99.046 481.355L24.68 349.953C23.272 347.465 24.184 344.173 26.672 342.765L51.968 328.449C52.7447 328.012 53.6216 327.783 54.513 327.786C56.368 327.786 58.198 328.75 59.156 330.442L133.523 461.843C133.863 462.446 134.08 463.109 134.162 463.796C134.243 464.483 134.188 465.18 133.999 465.845ZM480.606 340.394L316.997 441.137C304.023 449.126 289.785 451.12 274.68 447.073L156.009 415.275C154.994 415.002 153.936 414.933 152.894 415.07C151.853 415.207 150.848 415.549 149.939 416.075L131.899 426.491L87.284 347.66L154.493 308.748C169.528 300.043 185.795 292.749 202.853 298.284C208.334 300.061 214.653 302.346 221.968 304.99C242.932 312.569 268.987 321.988 296.02 326.93C305.441 330.222 310.709 339.324 308.305 348.296C305.142 360.102 295.304 361.571 287.484 360.671C274.201 357.94 261.58 354.338 248.225 350.525C241.894 348.717 235.348 346.847 228.62 345.045C224.356 343.904 219.966 346.435 218.822 350.702C218.55 351.717 218.481 352.775 218.618 353.817C218.755 354.858 219.096 355.863 219.621 356.773C220.147 357.682 220.846 358.48 221.679 359.119C222.513 359.759 223.464 360.228 224.479 360.5C231.081 362.269 237.563 364.12 243.832 365.91C257.594 369.841 270.593 373.553 284.59 376.414C284.642 376.425 284.694 376.428 284.746 376.438C284.801 376.448 284.853 376.464 284.909 376.473L296.12 378.296C312.888 380.978 327.765 378.366 341.6 370.309L431.755 317.798C457.705 302.683 477.684 301.146 485.195 313.687C490.371 322.328 488.056 335.808 480.606 340.394ZM59.307 353.827C59.4787 355.001 59.4176 356.197 59.1271 357.346C58.8366 358.496 58.3224 359.578 57.6139 360.529C56.9053 361.48 56.0163 362.283 54.9977 362.89C53.979 363.498 52.8506 363.899 51.677 364.07C50.5034 364.242 49.3075 364.18 48.1576 363.89C47.0077 363.599 45.9263 363.085 44.9751 362.377C44.024 361.668 43.2217 360.779 42.6141 359.76C42.0065 358.742 41.6055 357.614 41.434 356.44C41.1146 354.083 41.7383 351.694 43.1695 349.794C44.6006 347.894 46.7237 346.635 49.0777 346.291C51.4316 345.946 53.8263 346.545 55.7415 347.956C57.6568 349.367 58.9381 351.477 59.307 353.827ZM110.111 236.54H328.58C328.984 237.348 329.38 238.161 329.812 238.956L325.443 248.794C324.787 250.271 324.593 251.913 324.889 253.503C325.184 255.092 325.954 256.555 327.097 257.698L343.087 273.688C344.231 274.831 345.693 275.6 347.283 275.895C348.872 276.191 350.513 275.998 351.991 275.342L361.834 270.97C366.714 273.625 371.86 275.758 377.187 277.335L381.053 287.379C381.634 288.888 382.658 290.185 383.991 291.1C385.324 292.015 386.902 292.505 388.519 292.505H411.132C412.749 292.505 414.327 292.015 415.66 291.1C416.993 290.185 418.017 288.888 418.598 287.379L422.462 277.339C427.791 275.762 432.939 273.628 437.821 270.972L447.658 275.342C449.136 275.998 450.777 276.191 452.367 275.896C453.957 275.601 455.419 274.831 456.563 273.688L472.553 257.698C473.696 256.555 474.466 255.092 474.761 253.503C475.056 251.913 474.863 250.271 474.207 248.794L469.836 238.951C472.491 234.071 474.624 228.924 476.201 223.597L486.244 219.731C487.753 219.15 489.05 218.126 489.965 216.793C490.88 215.46 491.37 213.882 491.37 212.265V189.653C491.37 188.036 490.88 186.458 489.965 185.125C489.05 183.792 487.753 182.768 486.244 182.187L476.205 178.323C474.628 172.994 472.494 167.845 469.838 162.963L474.207 153.125C474.863 151.648 475.056 150.006 474.761 148.416C474.466 146.827 473.696 145.364 472.553 144.221L456.563 128.231C455.419 127.089 453.957 126.319 452.367 126.024C450.778 125.729 449.137 125.922 447.659 126.577L437.816 130.949C436.033 129.979 434.205 129.104 432.358 128.276V41.633C432.358 25.279 418.694 11.974 401.899 11.974H110.111C93.316 11.974 79.652 25.279 79.652 41.633V206.881C79.652 223.235 93.316 236.54 110.111 236.54ZM95.652 206.881V41.633C95.652 39.766 96.053 37.985 96.774 36.362L210.61 118.024L96.333 211.012C95.8824 209.681 95.6523 208.286 95.652 206.881ZM416.359 41.633V111.378C414.91 110.115 413.054 109.417 411.132 109.413H388.52C386.903 109.413 385.325 109.903 383.992 110.818C382.659 111.733 381.635 113.03 381.054 114.539L377.188 124.583C371.861 126.16 366.715 128.293 361.835 130.948L351.993 126.576C350.515 125.92 348.874 125.727 347.284 126.022C345.694 126.318 344.232 127.087 343.088 128.23L330.013 141.305L301.4 118.024L415.237 36.363C415.977 38.0214 416.359 39.817 416.359 41.633ZM256.005 130.897L112.529 27.974H399.483L256.005 130.897ZM109.98 220.534L224.083 127.689L251.342 147.244C252.736 148.244 254.37 148.744 256.005 148.744C257.64 148.744 259.275 148.244 260.668 147.244L287.928 127.689L328.981 161.095L329.813 162.968C327.158 167.848 325.024 172.995 323.447 178.322L313.405 182.188C311.896 182.769 310.599 183.793 309.684 185.126C308.769 186.459 308.279 188.037 308.279 189.654V212.267C308.279 213.884 308.769 215.463 309.684 216.795C310.599 218.128 311.897 219.152 313.406 219.733L315.504 220.541H110.111C110.067 220.54 110.024 220.534 109.98 220.534ZM440.587 147.226L449.135 143.429L457.357 151.651L453.563 160.194C453.036 161.382 452.806 162.68 452.893 163.976C452.98 165.273 453.381 166.528 454.062 167.635C457.596 173.367 460.191 179.626 461.75 186.177C462.05 187.441 462.654 188.613 463.509 189.591C464.365 190.569 465.445 191.324 466.658 191.791L475.373 195.145V206.772L466.654 210.128C465.441 210.595 464.361 211.35 463.505 212.328C462.65 213.306 462.046 214.478 461.745 215.742C460.187 222.291 457.593 228.548 454.06 234.278C453.379 235.385 452.978 236.64 452.891 237.937C452.804 239.233 453.034 240.531 453.561 241.719L457.357 250.267L449.135 258.489L440.593 254.694C439.405 254.167 438.106 253.937 436.81 254.024C435.513 254.111 434.257 254.513 433.15 255.194C427.419 258.728 421.16 261.322 414.61 262.88C413.346 263.181 412.174 263.785 411.196 264.64C410.218 265.495 409.463 266.576 408.996 267.789L405.641 276.505H394.014L390.658 267.786C390.191 266.574 389.436 265.493 388.458 264.638C387.48 263.783 386.309 263.179 385.045 262.878C378.497 261.319 372.239 258.724 366.509 255.192C365.402 254.511 364.147 254.109 362.85 254.022C361.554 253.935 360.256 254.166 359.068 254.693L350.52 258.489L342.298 250.267L346.092 241.724C346.619 240.536 346.849 239.238 346.762 237.942C346.675 236.645 346.274 235.39 345.593 234.283C342.059 228.551 339.464 222.291 337.905 215.74C337.604 214.476 337 213.304 336.145 212.326C335.289 211.348 334.209 210.594 332.996 210.127L324.281 206.773V195.145L332.999 191.79C334.211 191.323 335.292 190.568 336.147 189.59C337.002 188.612 337.606 187.441 337.907 186.177C339.466 179.628 342.061 173.37 345.593 167.639C346.274 166.533 346.676 165.277 346.763 163.98C346.85 162.684 346.62 161.386 346.093 160.198L342.298 151.652L350.52 143.429L359.066 147.226C360.254 147.754 361.552 147.984 362.849 147.897C364.145 147.81 365.401 147.409 366.508 146.727C372.239 143.195 378.496 140.6 385.045 139.04C386.309 138.739 387.48 138.135 388.458 137.28C389.436 136.425 390.191 135.344 390.658 134.132L394.014 125.413H405.641L408.997 134.132C409.464 135.344 410.218 136.425 411.196 137.28C412.174 138.135 413.346 138.739 414.61 139.04C421.158 140.599 427.416 143.194 433.146 146.726C434.252 147.407 435.508 147.809 436.805 147.896C438.101 147.983 439.399 147.753 440.587 147.226ZM353.077 200.96C353.077 226.737 374.049 247.708 399.826 247.708C425.603 247.708 446.575 226.737 446.575 200.96C446.575 175.183 425.603 154.211 399.826 154.211C374.049 154.211 353.077 175.183 353.077 200.96ZM430.575 200.96C430.575 217.914 416.781 231.708 399.826 231.708C382.871 231.708 369.077 217.914 369.077 200.96C369.077 184.005 382.871 170.211 399.826 170.211C416.781 170.211 430.575 184.005 430.575 200.96Z" fill="black"/>
</svg>
