<svg width="512" height="512" viewBox="0 0 512 512" fill="none" xmlns="http://www.w3.org/2000/svg">
<path d="M384 448.128C383.987 456.577 380.625 464.676 374.651 470.651C368.676 476.625 360.577 479.987 352.128 480H159.872C151.423 479.987 143.324 476.625 137.349 470.651C131.375 464.676 128.013 456.577 128 448.128V352H112V448.128C112.017 460.819 117.066 472.986 126.04 481.96C135.014 490.934 147.181 495.983 159.872 496H352.128C364.819 495.983 376.986 490.934 385.96 481.96C394.934 472.986 399.983 460.819 400 448.128V416H384V448.128ZM128 63.872C128.013 55.4229 131.375 47.3235 137.349 41.3491C143.324 35.3747 151.423 32.0127 159.872 32H352.128C360.577 32.0127 368.676 35.3747 374.651 41.3491C380.625 47.3235 383.987 55.4229 384 63.872V224H400V63.872C399.983 51.1808 394.934 39.0142 385.96 30.0401C376.986 21.066 364.819 16.0169 352.128 16H159.872C147.181 16.0169 135.014 21.066 126.04 30.0401C117.066 39.0142 112.017 51.1808 112 63.872V96H128V63.872Z" fill="black"/>
<path d="M184 48H200V64H184V48ZM216 48H296V64H216V48ZM216 440C216 446.365 218.529 452.47 223.029 456.971C227.53 461.471 233.635 464 240 464H272C278.365 464 284.47 461.471 288.971 456.971C293.471 452.47 296 446.365 296 440C296 433.635 293.471 427.53 288.971 423.029C284.47 418.529 278.365 416 272 416H240C233.635 416 227.53 418.529 223.029 423.029C218.529 427.53 216 433.635 216 440ZM240 432H272C274.122 432 276.157 432.843 277.657 434.343C279.157 435.843 280 437.878 280 440C280 442.122 279.157 444.157 277.657 445.657C276.157 447.157 274.122 448 272 448H240C237.878 448 235.843 447.157 234.343 445.657C232.843 444.157 232 442.122 232 440C232 437.878 232.843 435.843 234.343 434.343C235.843 432.843 237.878 432 240 432ZM152 280H154.4C173.6 280 182.112 269.656 183.68 260C184.51 255.167 183.834 250.197 181.745 245.761C179.656 241.325 176.254 237.638 172 235.2C170.909 234.668 169.971 233.869 169.271 232.878C168.572 231.886 168.135 230.734 168 229.528V208C167.995 201.55 166.427 195.198 163.432 189.486C160.437 183.774 156.103 178.872 150.8 175.2C151.985 171.595 152.298 167.761 151.714 164.012C151.13 160.263 149.665 156.706 147.44 153.632C145.215 150.559 142.293 148.057 138.914 146.331C135.535 144.606 131.794 143.706 128 143.706C124.206 143.706 120.465 144.606 117.086 146.331C113.707 148.057 110.785 150.559 108.56 153.632C106.335 156.706 104.87 160.263 104.286 164.012C103.702 167.761 104.015 171.595 105.2 175.2C99.8975 178.872 95.5632 183.774 92.5679 189.486C89.5725 195.198 88.0052 201.55 88 208V228.8C88.0729 229.944 87.842 231.087 87.3305 232.112C86.8191 233.138 86.0454 234.01 85.088 234.64C80.5403 236.96 76.851 240.67 74.5563 245.231C72.2615 249.792 71.481 254.965 72.328 260C73.4201 265.682 76.4755 270.798 80.9596 274.455C85.4436 278.111 91.0707 280.074 96.856 280H104C104 286.365 106.529 292.47 111.029 296.971C115.53 301.471 121.635 304 128 304C134.365 304 140.47 301.471 144.971 296.971C149.471 292.47 152 286.365 152 280ZM120 168C120 165.878 120.843 163.843 122.343 162.343C123.843 160.843 125.878 160 128 160C130.122 160 132.157 160.843 133.657 162.343C135.157 163.843 136 165.878 136 168C135.969 168.269 135.92 168.537 135.856 168.8C130.672 167.744 125.328 167.744 120.144 168.8C120.08 168.537 120.031 168.269 120 168ZM96.856 264C94.862 264.073 92.9038 263.456 91.3112 262.254C89.7186 261.052 88.5888 259.338 88.112 257.4C87.811 255.709 88.0623 253.966 88.8287 252.428C89.5952 250.891 90.8362 249.641 92.368 248.864C95.9709 246.92 98.9651 244.017 101.018 240.475C103.072 236.934 104.104 232.892 104 228.8V208C104 201.635 106.529 195.53 111.029 191.029C115.53 186.529 121.635 184 128 184C134.365 184 140.47 186.529 144.971 191.029C149.471 195.53 152 201.635 152 208V229.544C152.091 233.569 153.251 237.498 155.359 240.928C157.468 244.357 160.45 247.165 164 249.064C165.421 249.892 166.554 251.133 167.249 252.623C167.944 254.113 168.167 255.78 167.888 257.4C166.912 263.352 158.128 264 154.392 264H96.856ZM120 280H136C136 282.122 135.157 284.157 133.657 285.657C132.157 287.157 130.122 288 128 288C125.878 288 123.843 287.157 122.343 285.657C120.843 284.157 120 282.122 120 280Z" fill="black"/>
<path d="M240 224C240 201.849 233.431 180.194 221.125 161.776C208.818 143.358 191.326 129.003 170.861 120.526C150.395 112.049 127.876 109.831 106.15 114.152C84.4241 118.474 64.4676 129.141 48.8041 144.804C33.1406 160.468 22.4736 180.424 18.1521 202.15C13.8306 223.876 16.0485 246.395 24.5255 266.861C33.0026 287.326 47.3579 304.818 65.7762 317.125C84.1945 329.431 105.849 336 128 336C157.695 335.968 186.164 324.158 207.161 303.161C228.158 282.164 239.968 253.695 240 224ZM32.0001 224C32.0001 205.013 37.6304 186.452 48.179 170.665C58.7276 154.878 73.7207 142.574 91.2624 135.308C108.804 128.042 128.107 126.14 146.729 129.845C165.351 133.549 182.456 142.692 195.882 156.118C209.308 169.544 218.451 186.649 222.155 205.271C225.86 223.894 223.958 243.196 216.692 260.738C209.426 278.279 197.122 293.273 181.335 303.821C165.548 314.37 146.987 320 128 320C102.548 319.973 78.1457 309.849 60.1482 291.852C42.1507 273.854 32.0276 249.452 32.0001 224ZM472 240H280C273.635 240 267.53 242.529 263.029 247.029C258.529 251.53 256 257.635 256 264V376C256 382.365 258.529 388.47 263.029 392.971C267.53 397.471 273.635 400 280 400H472C478.365 400 484.47 397.471 488.971 392.971C493.471 388.47 496 382.365 496 376V264C496 257.635 493.471 251.53 488.971 247.029C484.47 242.529 478.365 240 472 240ZM280 256H472C473.264 256.014 474.505 256.333 475.619 256.929C476.733 257.525 477.687 258.381 478.4 259.424L379.2 301.944C378.203 302.368 377.131 302.586 376.048 302.586C374.965 302.586 373.893 302.368 372.896 301.944L273.6 259.424C274.313 258.381 275.267 257.525 276.381 256.929C277.495 256.333 278.737 256.014 280 256ZM472 384H280C277.878 384 275.843 383.157 274.343 381.657C272.843 380.157 272 378.122 272 376V276.136L366.552 316.656C369.541 317.928 372.756 318.584 376.004 318.584C379.252 318.584 382.467 317.928 385.456 316.656L480 276.136V376C480 378.122 479.157 380.157 477.657 381.657C476.157 383.157 474.122 384 472 384ZM256 112H272V128H256V112ZM288 112H352V128H288V112ZM256 144H352V160H256V144ZM256 176H352V192H256V176Z" fill="black"/>
</svg>
