<svg width="272" height="280" viewBox="0 0 272 280" fill="none" xmlns="http://www.w3.org/2000/svg">
<path d="M228.403 218.794C226.255 205.455 228.188 176.95 228.188 176.95C228.188 176.95 232.376 199.431 240.752 202.658C254.174 182.113 262.013 157.48 262.013 131.018C261.906 58.7322 203.275 0 131.007 0C112.43 0 94.7114 3.87245 78.604 10.972C87.7315 8.39032 97.396 6.99193 107.383 6.99193C166.443 6.99193 214.336 54.9673 214.336 114.13C214.336 173.292 166.443 221.268 107.383 221.268C50.0403 221.268 3.22148 176.089 0.536913 119.293C0.214765 123.166 0 127.146 0 131.126C0 203.519 58.6309 262.251 130.899 262.251C156.134 262.251 179.651 255.152 199.624 242.781C209.826 256.55 230.658 274.514 272 280C240.752 256.55 230.872 234.284 228.403 218.794Z" fill="url(#paint0_linear_33_3)"/>
<path d="M34.4698 124.456C34.4698 78.3097 71.8389 40.9835 117.799 40.9835C149.691 40.9835 177.396 58.9474 191.463 85.3016C179.651 49.9117 146.255 24.418 107.06 24.418C98.792 24.418 90.7383 25.6012 83.1141 27.645C45.6376 38.1867 18.0403 72.6086 18.0403 113.592C18.0403 114.99 18.0403 116.496 18.1477 117.895C19.9732 155.328 44.7785 186.738 78.8188 198.141C52.4027 184.157 34.4698 156.404 34.4698 124.456Z" fill="#059669"/>
<path d="M85.0267 138C82.2533 138 79.8889 137.067 77.9333 135.202C75.9778 133.302 75 130.884 75 127.948C75 125.012 75.9778 122.629 77.9333 120.798C79.8889 118.933 82.2533 118 85.0267 118C87.7645 118 90.1111 118.933 92.0667 120.798C94.0222 122.629 95 125.012 95 127.948C95 130.884 94.0222 133.302 92.0667 135.202C90.1111 137.067 87.7645 138 85.0267 138Z" fill="#0F172A"/>
<path d="M125.027 138C122.253 138 119.889 137.067 117.933 135.202C115.978 133.302 115 130.884 115 127.948C115 125.012 115.978 122.629 117.933 120.798C119.889 118.933 122.253 118 125.027 118C127.764 118 130.111 118.933 132.067 120.798C134.022 122.629 135 125.012 135 127.948C135 130.884 134.022 133.302 132.067 135.202C130.111 137.067 127.764 138 125.027 138Z" fill="#0F172A"/>
<path d="M165.027 138C162.253 138 159.889 137.067 157.933 135.202C155.978 133.302 155 130.884 155 127.948C155 125.012 155.978 122.629 157.933 120.798C159.889 118.933 162.253 118 165.027 118C167.764 118 170.111 118.933 172.067 120.798C174.022 122.629 175 125.012 175 127.948C175 130.884 174.022 133.302 172.067 135.202C170.111 137.067 167.764 138 165.027 138Z" fill="#0F172A"/>
<defs>
<linearGradient id="paint0_linear_33_3" x1="271.678" y1="279.677" x2="178.336" y2="184.661" gradientUnits="userSpaceOnUse">
<stop stop-color="#065F46"/>
<stop offset="1" stop-color="#059669"/>
</linearGradient>
</defs>
</svg>
