<svg width="512" height="512" viewBox="0 0 512 512" fill="none" xmlns="http://www.w3.org/2000/svg">
<path d="M496 24H320C311.176 24 304 31.176 304 40V104H64C50.768 104 40 114.768 40 128V408H8C5.87827 408 3.84344 408.843 2.34315 410.343C0.842855 411.843 0 413.878 0 416L0 464C0 477.232 10.768 488 24 488H456C469.232 488 480 477.232 480 464V416C480 413.878 479.157 411.843 477.657 410.343C476.157 408.843 474.122 408 472 408H440V200H496C504.824 200 512 192.824 512 184V40C512 31.176 504.824 24 496 24ZM332.936 231.392C334.399 231.991 336.007 232.146 337.557 231.837C339.108 231.529 340.534 230.77 341.656 229.656L371.312 200H392V256H248V152H304V184C304 192.824 311.176 200 320 200H328V224C328 227.232 329.952 230.152 332.936 231.392ZM296 376V368C296 354.768 306.768 344 320 344C333.232 344 344 354.768 344 368V376H296ZM304 312C304 303.176 311.176 296 320 296C328.824 296 336 303.176 336 312C336 320.824 328.824 328 320 328C311.176 328 304 320.824 304 312ZM342.344 334.84C345.398 331.871 347.826 328.321 349.484 324.398C351.143 320.475 351.998 316.259 352 312C352 294.352 337.648 280 320 280C302.352 280 288 294.352 288 312C288 320.944 291.712 329.024 297.656 334.84C292.222 338.499 287.771 343.436 284.692 349.218C281.613 355 280.002 361.449 280 368V376H248V272H392V376H360V368C359.998 361.449 358.387 355 355.308 349.218C352.229 343.436 347.778 338.499 342.344 334.84ZM200 376V368C199.998 361.449 198.387 355 195.308 349.218C192.229 343.436 187.778 338.499 182.344 334.84C185.398 331.871 187.826 328.321 189.484 324.398C191.143 320.475 191.998 316.259 192 312C192 294.352 177.648 280 160 280C142.352 280 128 294.352 128 312C128 320.944 131.712 329.024 137.656 334.84C132.222 338.499 127.771 343.436 124.692 349.218C121.613 355 120.002 361.449 120 368V376H88V272H232V376H200ZM136 376V368C136 354.768 146.768 344 160 344C173.232 344 184 354.768 184 368V376H136ZM144 312C144 303.176 151.176 296 160 296C168.824 296 176 303.176 176 312C176 320.824 168.824 328 160 328C151.176 328 144 320.824 144 312ZM136 256V248C136 234.768 146.768 224 160 224C173.232 224 184 234.768 184 248V256H136ZM144 192C144 183.176 151.176 176 160 176C168.824 176 176 183.176 176 192C176 200.824 168.824 208 160 208C151.176 208 144 200.824 144 192ZM182.344 214.84C185.398 211.871 187.826 208.321 189.484 204.398C191.143 200.475 191.998 196.259 192 192C192 174.352 177.648 160 160 160C142.352 160 128 174.352 128 192C128 200.944 131.712 209.024 137.656 214.84C132.221 218.498 127.769 223.435 124.69 229.217C121.611 234.999 120.001 241.449 120 248V256H88V152H232V256H200V248C199.999 241.449 198.389 234.999 195.31 229.217C192.231 223.435 187.779 218.498 182.344 214.84ZM464 464C464 468.408 460.408 472 456 472H24C19.592 472 16 468.408 16 464V424H464V464ZM424 408H56V128C56 123.592 59.592 120 64 120H304V136H80C77.8783 136 75.8434 136.843 74.3431 138.343C72.8429 139.843 72 141.878 72 144V384C72 386.122 72.8429 388.157 74.3431 389.657C75.8434 391.157 77.8783 392 80 392H400C402.122 392 404.157 391.157 405.657 389.657C407.157 388.157 408 386.122 408 384V200H424V408ZM496 184H368C366.949 183.999 365.909 184.205 364.938 184.608C363.968 185.01 363.086 185.6 362.344 186.344L344 204.688V192C344 189.878 343.157 187.843 341.657 186.343C340.157 184.843 338.122 184 336 184H320V40H496V184Z" fill="black"/>
<path d="M368 144H416C424.824 144 432 136.824 432 128L451.2 142.4C452.39 143.288 453.802 143.83 455.281 143.964C456.759 144.098 458.246 143.82 459.576 143.16C462.288 141.8 464 139.032 464 136V87.9998C464.004 86.5123 463.593 85.0531 462.813 83.7868C462.032 82.5205 460.914 81.4974 459.583 80.8328C458.252 80.1682 456.762 79.8887 455.281 80.0256C453.8 80.1625 452.386 80.7105 451.2 81.6078L432 95.9998C432 87.1758 424.824 79.9998 416 79.9998H368C359.176 79.9998 352 87.1758 352 95.9998V128C352 136.824 359.176 144 368 144ZM448 104V120L437.336 112L448 104ZM368 95.9998H416L416.008 111.976L416 112L416.008 112.024V128H368V95.9998Z" fill="black"/>
</svg>
