<svg width="512" height="512" viewBox="0 0 512 512" fill="none" xmlns="http://www.w3.org/2000/svg">
<g clip-path="url(#clip0_114_426)">
<path d="M492 256.028V215.972C492.008 208.232 489.157 200.763 483.996 194.996C478.834 189.229 471.725 185.571 464.032 184.724L439.052 181.952C435.255 169.051 430.094 156.591 423.656 144.784L439.36 125.156C444.2 119.117 446.64 111.504 446.211 103.776C445.783 96.0487 442.517 88.7514 437.04 83.284L408.72 54.964C403.249 49.4928 395.952 46.2311 388.227 45.803C380.501 45.375 372.889 47.8107 366.848 52.644L347.22 68.344C335.413 61.9046 322.953 56.7421 310.052 52.944L307.276 27.968C306.429 20.2749 302.771 13.1655 297.004 8.00389C291.237 2.84226 283.767 -0.00800147 276.028 1.6872e-05H235.972C228.233 -0.00701515 220.764 2.84369 214.998 8.00523C209.231 13.1668 205.574 20.2756 204.728 27.968L201.952 52.948C189.05 56.7447 176.591 61.9058 164.784 68.344L145.156 52.64C139.114 47.8067 131.502 45.371 123.776 45.799C116.051 46.2271 108.754 49.4888 103.284 54.96L74.9635 83.284C69.4859 88.7514 66.2197 96.0487 65.7916 103.776C65.3634 111.504 67.8034 119.117 72.6435 125.156L88.3435 144.78C81.9051 156.588 76.7439 169.049 72.9475 181.952L47.9675 184.724C40.2745 185.571 33.165 189.229 28.0034 194.996C22.8418 200.763 19.9915 208.232 19.9995 215.972V256.028C19.9915 263.768 22.8418 271.237 28.0034 277.004C33.165 282.771 40.2745 286.429 47.9675 287.276L72.9475 290.048C75.9951 300.358 79.916 310.389 84.6675 320.032C91.9704 320.13 99.1528 321.907 105.66 325.224C96.4377 309.742 89.6809 292.92 85.6315 275.36L49.7355 271.372C45.9591 270.953 42.47 269.156 39.9357 266.325C37.4014 263.494 35.9999 259.828 35.9995 256.028V215.972C35.9999 212.172 37.4014 208.506 39.9357 205.675C42.47 202.844 45.9591 201.047 49.7355 200.628L85.6315 196.64C89.9693 177.776 97.428 159.77 107.7 143.364L85.1395 115.16C82.7663 112.194 81.5701 108.456 81.7797 104.663C81.9893 100.87 83.59 97.287 86.2755 94.6L114.596 66.276C117.282 63.5888 120.866 61.9867 124.66 61.7764C128.454 61.566 132.192 62.7622 135.16 65.136L163.364 87.7C179.769 77.4284 197.776 69.9698 216.64 65.632L220.628 29.732C221.048 25.9563 222.845 22.4681 225.676 19.9347C228.507 17.4012 232.173 16.0003 235.972 16H276.028C279.827 16.0003 283.492 17.4012 286.323 19.9347C289.154 22.4681 290.951 25.9563 291.372 29.732L295.36 65.632C314.223 69.97 332.23 77.4287 348.636 87.7L376.84 65.136C379.807 62.7633 383.544 61.5678 387.337 61.7781C391.131 61.9885 394.713 63.5899 397.4 66.276L425.728 94.596C428.414 97.2832 430.016 100.867 430.225 104.661C430.435 108.455 429.238 112.193 426.864 115.16L404.304 143.364C414.574 159.77 422.031 177.777 426.368 196.64L462.268 200.628C466.043 201.048 469.531 202.846 472.065 205.677C474.598 208.507 475.999 212.173 476 215.972V256.028C475.999 259.827 474.598 263.493 472.065 266.323C469.531 269.154 466.043 270.952 462.268 271.372L426.368 275.36C422.318 292.92 415.561 309.742 406.34 325.224C412.845 321.909 420.026 320.134 427.328 320.036C432.08 310.393 436.003 300.362 439.052 290.052L464.032 287.276C471.725 286.429 478.834 282.771 483.996 277.004C489.157 271.237 492.008 263.768 492 256.028Z" fill="black"/>
<path d="M188.004 312H324C328.242 311.996 332.309 310.309 335.309 307.309C338.309 304.309 339.996 300.242 340 296V272.192C340.082 267.088 339.564 261.991 338.456 257.008C336.455 249.917 331.765 243.887 325.384 240.204L285.668 217.084C283.939 216.079 281.897 215.757 279.943 216.183C277.989 216.609 276.266 217.751 275.112 219.384L255.984 246.464L236.904 219.392C235.751 217.756 234.028 216.612 232.073 216.185C230.118 215.757 228.074 216.078 226.344 217.084L186.896 240.052C180.387 243.727 175.59 249.822 173.548 257.012C172.451 261.948 171.934 266.996 172.008 272.052V296C172.012 300.242 173.699 304.309 176.699 307.309C179.699 310.309 183.762 311.996 188.004 312ZM189.028 261.048C189.986 258.098 191.993 255.602 194.668 254.032L228.044 234.604L249.196 264.608C249.934 265.655 250.913 266.51 252.05 267.101C253.188 267.691 254.45 267.999 255.732 268H256.212C257.492 268 258.753 267.692 259.89 267.103C261.027 266.514 262.005 265.661 262.744 264.616L283.948 234.596L317.608 254.184C320.154 255.762 322.054 258.195 322.968 261.048C323.714 264.666 324.059 268.355 323.996 272.048L324.008 296H188.008L188 271.92C187.944 268.269 188.291 264.624 189.028 261.048Z" fill="black"/>
<path d="M256 216C264.483 215.989 272.617 212.615 278.615 206.616C284.614 200.617 287.989 192.484 288 184V168C288 159.513 284.628 151.374 278.627 145.373C272.626 139.371 264.487 136 256 136C247.513 136 239.374 139.371 233.372 145.373C227.371 151.374 224 159.513 224 168V184C224.01 192.484 227.385 200.617 233.384 206.616C239.383 212.615 247.516 215.989 256 216ZM240 168C240 163.757 241.685 159.687 244.686 156.686C247.687 153.686 251.756 152 256 152C260.243 152 264.313 153.686 267.313 156.686C270.314 159.687 272 163.757 272 168V184C272 188.243 270.314 192.313 267.313 195.314C264.313 198.314 260.243 200 256 200C251.756 200 247.687 198.314 244.686 195.314C241.685 192.313 240 188.243 240 184V168ZM0.00375864 496C0.00799445 500.242 1.69506 504.309 4.69473 507.309C7.69439 510.309 11.7616 511.996 16.0038 512H152C156.242 511.996 160.309 510.309 163.309 507.309C166.308 504.309 167.996 500.242 168 496V472.192C168.081 467.089 167.563 461.994 166.456 457.012C164.457 449.919 159.766 443.888 153.384 440.204L113.668 417.084C111.939 416.079 109.897 415.757 107.943 416.183C105.989 416.609 104.265 417.751 103.112 419.384L83.9838 446.464L64.9038 419.392C63.7517 417.756 62.0279 416.611 60.0728 416.183C58.1177 415.756 56.0735 416.077 54.3438 417.084L14.8958 440.052C8.38775 443.727 3.59258 449.822 1.55176 457.012C0.452832 461.948 -0.0653505 466.996 0.00775864 472.052L0.00375864 496ZM17.0278 461.052C17.9855 458.101 19.9922 455.603 22.6678 454.032L56.0438 434.6L77.1958 464.608C77.9339 465.656 78.9129 466.51 80.0503 467.101C81.1877 467.691 82.4503 467.999 83.7318 468H84.2118C85.4919 468 86.7532 467.692 87.8898 467.103C89.0264 466.515 90.0051 465.661 90.7438 464.616L111.948 434.596L145.608 454.184C148.155 455.763 150.057 458.198 150.972 461.052C151.716 464.67 152.06 468.359 151.996 472.052L152.008 496H16.0078L15.9998 471.92C15.9433 468.271 16.2906 464.626 17.0278 461.052Z" fill="black"/>
<path d="M52 368V384C52 392.487 55.3714 400.626 61.3726 406.627C67.3737 412.629 75.5131 416 84 416C92.4869 416 100.626 412.629 106.627 406.627C112.629 400.626 116 392.487 116 384V368C116 359.513 112.629 351.374 106.627 345.373C100.626 339.371 92.4869 336 84 336C75.5131 336 67.3737 339.371 61.3726 345.373C55.3714 351.374 52 359.513 52 368ZM100 368V384C100 388.243 98.3143 392.313 95.3137 395.314C92.3131 398.314 88.2435 400 84 400C79.7565 400 75.6869 398.314 72.6863 395.314C69.6857 392.313 68 388.243 68 384V368C68 363.757 69.6857 359.687 72.6863 356.686C75.6869 353.686 79.7565 352 84 352C88.2435 352 92.3131 353.686 95.3137 356.686C98.3143 359.687 100 363.757 100 368ZM497.38 440.2L457.664 417.084C455.935 416.079 453.893 415.757 451.939 416.183C449.985 416.609 448.262 417.751 447.108 419.384L427.98 446.464L408.9 419.392C407.748 417.756 406.024 416.611 404.069 416.183C402.114 415.756 400.07 416.077 398.34 417.084L358.892 440.052C352.384 443.727 347.589 449.822 345.548 457.012C344.449 461.948 343.931 466.996 344.004 472.052V496C344.008 500.242 345.695 504.309 348.695 507.309C351.695 510.309 355.762 511.996 360.004 512H496C500.242 511.996 504.309 510.309 507.309 507.309C510.309 504.309 511.996 500.242 512 496V472.192C512.082 467.089 511.564 461.994 510.456 457.012C508.457 449.919 503.766 443.888 497.384 440.204L497.38 440.2ZM360.004 496V471.92C359.948 468.271 360.291 464.626 361.028 461.052C361.986 458.101 363.992 455.603 366.668 454.032L400.044 434.6L421.196 464.608C421.934 465.656 422.913 466.51 424.051 467.101C425.188 467.691 426.451 467.999 427.732 468H428.212C429.492 468 430.753 467.692 431.89 467.103C433.027 466.515 434.005 465.662 434.744 464.616L455.948 434.596L489.608 454.184C492.155 455.763 494.057 458.198 494.972 461.052C495.716 464.67 496.06 468.359 495.996 472.052L496.008 496H360.004Z" fill="black"/>
<path d="M428 416C436.484 415.989 444.617 412.615 450.616 406.616C456.615 400.617 459.989 392.484 460 384V368C460 359.513 456.629 351.374 450.627 345.373C444.626 339.371 436.487 336 428 336C419.513 336 411.374 339.371 405.373 345.373C399.371 351.374 396 359.513 396 368V384C396.011 392.484 399.385 400.617 405.384 406.616C411.383 412.615 419.516 415.989 428 416ZM412 368C412 363.757 413.686 359.687 416.686 356.686C419.687 353.686 423.757 352 428 352C432.243 352 436.313 353.686 439.314 356.686C442.314 359.687 444 363.757 444 368V384C444 388.243 442.314 392.313 439.314 395.314C436.313 398.314 432.243 400 428 400C423.757 400 419.687 398.314 416.686 395.314C413.686 392.313 412 388.243 412 384V368ZM408 236C408.001 206.963 399.685 178.532 384.035 154.073C368.385 129.614 346.056 110.149 319.691 97.9822C293.326 85.8149 264.027 81.4543 235.261 85.4162C206.495 89.3781 179.466 101.497 157.371 120.338C135.277 139.18 119.042 163.956 110.586 191.735C102.131 219.514 101.81 249.134 109.661 277.09C117.511 305.046 133.206 330.168 154.886 349.485C176.567 368.801 203.327 381.503 232 386.088V369.848C198.549 363.851 168.556 345.547 147.926 318.542C127.296 291.536 117.524 257.785 120.535 223.935C123.545 190.085 139.12 158.588 164.192 135.647C189.264 112.706 222.016 99.9824 256 99.9824C289.984 99.9824 322.736 112.706 347.808 135.647C372.88 158.588 388.455 190.085 391.465 223.935C394.476 257.785 384.704 291.536 364.074 318.542C343.444 345.547 313.451 363.851 280 369.848V386.088C315.679 380.336 348.148 362.079 371.599 334.581C395.049 307.083 407.953 272.139 408 236Z" fill="black"/>
<path d="M193.928 453.208C195.309 454.818 197.273 455.814 199.388 455.976C201.503 456.139 203.596 455.456 205.208 454.076L256 410.536L306.792 454.076C307.59 454.76 308.515 455.28 309.513 455.607C310.512 455.933 311.566 456.06 312.614 455.979C313.661 455.898 314.683 455.612 315.62 455.137C316.558 454.661 317.392 454.006 318.076 453.208C318.76 452.41 319.28 451.485 319.606 450.486C319.933 449.487 320.059 448.434 319.979 447.386C319.898 446.338 319.612 445.317 319.137 444.38C318.661 443.442 318.006 442.608 317.208 441.924L264 396.32V344C264 341.878 263.157 339.843 261.657 338.343C260.156 336.843 258.122 336 256 336C253.878 336 251.843 336.843 250.343 338.343C248.843 339.843 248 341.878 248 344V396.32L194.792 441.924C193.182 443.305 192.186 445.27 192.024 447.385C191.862 449.5 192.547 451.598 193.928 453.208Z" fill="black"/>
</g>
<defs>
<clipPath id="clip0_114_426">
<rect width="512" height="512" fill="white"/>
</clipPath>
</defs>
</svg>
