<svg width="512" height="512" viewBox="0 0 512 512" fill="none" xmlns="http://www.w3.org/2000/svg">
<path d="M179.2 176.941C182.212 177.694 185.976 176.941 188.235 173.176L203.294 146.823C204.8 143.812 204.8 140.047 201.788 137.788L182.965 120.47C183.718 113.694 183.718 106.164 182.212 99.388L200.282 82.8233C202.541 80.5645 203.294 76.7998 201.788 73.788L186.729 47.4351C184.471 45.1762 180.706 43.6704 177.694 44.4233L151.341 52.7057C147.576 49.6939 143.059 47.4351 138.541 45.9292L133.271 21.0821C132.518 17.3174 129.506 15.0586 125.741 15.0586H95.6235C91.8588 15.0586 88.8471 17.3174 88.0941 21.0821L82.8235 45.1762C77.553 47.4351 72.2824 50.4468 67.0118 53.4586L42.1647 45.9292C39.153 45.1762 35.3883 45.9292 33.1294 49.6939L18.0706 76.0468C16.5647 79.0586 16.5647 82.8233 19.5765 85.0821L37.6471 101.647C36.8941 107.67 36.1412 113.694 36.8941 120.47L18.0706 137.788C15.0588 139.294 14.3059 143.059 15.8118 146.07L30.8706 172.423C32.3765 175.435 36.1412 176.941 39.9059 176.188L61.7412 169.412C67.7647 174.682 75.2941 179.2 82.8235 182.212L88.0941 206.306C88.8471 210.07 91.8588 212.329 95.6235 212.329H125.741C129.506 212.329 132.518 210.07 133.271 206.306L138.541 181.459C145.318 178.447 151.341 174.682 156.612 170.164L179.2 176.941ZM149.835 155.859C143.812 161.129 137.035 165.647 129.506 168.659C127.247 169.412 124.988 171.67 124.988 173.929L119.718 196.517H101.647L97.1294 174.682C96.3765 172.423 94.8706 170.164 91.8588 169.412C83.5765 166.4 75.2941 161.882 69.2706 155.859C67.0118 153.6 64 152.847 61.7412 154.353L42.1647 160.376L33.1294 144.564L49.6941 128C51.2 126.494 52.7059 124.235 51.953 121.223C51.2 113.694 51.2 106.917 52.7059 99.388C53.4588 96.3762 52.7059 94.1174 50.4471 91.8586L33.8824 76.7998L42.9177 60.988L66.2588 68.5174C68.5177 69.2704 71.5294 68.5174 73.0353 67.0115C78.3059 62.4939 84.3294 59.4821 91.1059 57.2233C93.3647 56.4704 95.6235 54.2115 96.3765 51.9527L100.894 30.1174H118.965L124.235 52.7057C124.988 54.9645 126.494 57.2233 128.753 57.9762C134.776 60.2351 140.047 63.2468 144.565 67.0115C146.824 68.5174 149.082 69.2704 151.341 68.5174L175.435 60.988L184.471 76.7998L167.906 91.8586C165.647 93.3645 164.894 96.3762 165.647 99.388C167.906 106.917 167.906 115.2 166.4 122.729C165.647 124.988 167.153 128 168.659 129.506L185.976 145.317L176.941 161.129L155.859 154.353C154.353 153.6 152.094 154.353 149.835 155.859Z" fill="black"/>
<path d="M109.929 70.0233C85.8353 70.0233 66.2588 89.5998 66.2588 113.694C66.2588 137.788 85.8353 157.364 109.929 157.364C134.023 157.364 153.6 137.788 153.6 113.694C153.6 89.5998 134.023 70.0233 109.929 70.0233ZM109.929 142.306C94.1176 142.306 81.3176 129.506 81.3176 113.694C81.3176 97.8821 94.1176 85.0821 109.929 85.0821C125.741 85.0821 138.541 97.8821 138.541 113.694C138.541 129.506 125.741 142.306 109.929 142.306ZM474.353 95.6233C487.153 95.6233 496.941 85.8351 496.941 73.0351V37.6468C496.941 24.8468 487.153 15.0586 474.353 15.0586H262.776C249.976 15.0586 240.188 24.8468 240.188 37.6468V72.2821C240.188 85.0821 249.976 94.8704 262.776 94.8704H287.624V112.941H262.776C249.976 112.941 240.188 122.729 240.188 135.529V170.164C240.188 182.964 249.976 192.753 262.776 192.753H474.353C487.153 192.753 496.941 182.964 496.941 170.164V135.529C496.941 122.729 487.153 112.941 474.353 112.941H449.506V95.6233H474.353ZM255.247 73.0351V37.6468C255.247 33.1292 258.259 30.1174 262.776 30.1174H474.353C478.871 30.1174 481.882 33.1292 481.882 37.6468V72.2821C481.882 76.7998 478.871 79.8115 474.353 79.8115H262.776C258.259 80.5645 255.247 76.7998 255.247 73.0351ZM481.882 135.529V170.164C481.882 174.682 478.871 177.694 474.353 177.694H262.776C258.259 177.694 255.247 174.682 255.247 170.164V135.529C255.247 131.012 258.259 128 262.776 128H474.353C478.118 128 481.882 131.012 481.882 135.529ZM433.694 112.941H302.682V95.6233H433.694V112.941Z" fill="black"/>
<path d="M287.624 47.4351H280.094C275.576 47.4351 272.565 50.4468 272.565 54.9645C272.565 59.4821 275.576 62.4939 280.094 62.4939H287.624C292.141 62.4939 295.153 59.4821 295.153 54.9645C295.153 50.4468 292.141 47.4351 287.624 47.4351ZM314.729 62.4939H322.259C326.776 62.4939 329.788 59.4821 329.788 54.9645C329.788 50.4468 326.776 47.4351 322.259 47.4351H314.729C310.212 47.4351 307.2 50.4468 307.2 54.9645C307.2 59.4821 310.212 62.4939 314.729 62.4939ZM348.612 62.4939H356.141C360.659 62.4939 363.671 59.4821 363.671 54.9645C363.671 50.4468 360.659 47.4351 356.141 47.4351H348.612C344.094 47.4351 341.082 50.4468 341.082 54.9645C341.082 59.4821 344.847 62.4939 348.612 62.4939ZM287.624 145.317H280.094C275.576 145.317 272.565 148.329 272.565 152.847C272.565 157.364 275.576 160.376 280.094 160.376H287.624C292.141 160.376 295.153 157.364 295.153 152.847C295.153 148.329 292.141 145.317 287.624 145.317ZM321.506 145.317H313.977C309.459 145.317 306.447 148.329 306.447 152.847C306.447 157.364 309.459 160.376 313.977 160.376H321.506C326.024 160.376 329.035 157.364 329.035 152.847C329.035 148.329 326.024 145.317 321.506 145.317ZM356.141 145.317H348.612C344.094 145.317 341.082 148.329 341.082 152.847C341.082 157.364 344.094 160.376 348.612 160.376H356.141C360.659 160.376 363.671 157.364 363.671 152.847C363.671 148.329 359.906 145.317 356.141 145.317ZM22.5882 496.941H489.412C493.929 496.941 496.941 493.929 496.941 489.412C496.941 484.894 493.929 481.882 489.412 481.882H466.824V432.941C466.824 428.423 463.812 425.412 459.294 425.412C454.776 425.412 451.765 428.423 451.765 432.941V481.882H376.471V427.67C376.471 387.764 344.847 355.388 305.694 353.129C301.176 348.612 294.4 341.835 293.647 337.317C304.188 327.529 310.965 313.223 310.965 297.412V270.306C317.741 264.282 322.259 256 322.259 246.212C322.259 228.894 307.953 214.588 290.635 214.588C284.612 214.588 278.588 216.094 274.071 219.106C237.176 202.541 195.765 229.647 195.765 270.306C195.765 277.835 197.271 284.612 200.282 292.141V297.412C200.282 313.223 207.059 327.529 217.6 337.317C216.847 341.835 210.824 348.612 205.553 353.129C166.4 355.388 134.776 388.517 134.776 427.67V481.882H58.7294V432.941C58.7294 428.423 55.7177 425.412 51.2 425.412C46.6824 425.412 43.6706 428.423 43.6706 432.941V481.882H22.5882C18.0706 481.882 15.0588 484.894 15.0588 489.412C15.0588 493.929 18.0706 496.941 22.5882 496.941ZM271.812 234.164C274.071 235.67 277.835 234.917 280.094 233.412C280.847 232.659 284.612 228.894 291.388 228.894C300.424 228.894 307.953 236.423 307.953 245.459C307.953 254.494 300.424 262.023 290.635 262.023C290.635 262.023 279.341 262.776 262.777 252.988C246.212 243.953 225.882 247.717 212.329 260.517C217.6 236.423 245.459 220.612 271.812 234.164ZM215.341 296.659V289.129C214.588 271.059 236.424 256 254.494 266.541C266.541 273.317 282.353 278.588 295.153 277.082V297.412C295.153 319.247 277.082 337.317 255.247 337.317C233.412 337.317 215.341 319.247 215.341 296.659ZM256 352.376C265.035 352.376 274.071 350.117 281.6 346.353C284.612 352.376 288.376 356.894 292.141 360.659L256 396.8L219.859 360.659C223.624 356.894 227.388 352.376 230.4 346.353C237.929 350.117 246.965 352.376 256 352.376ZM150.588 427.67C150.588 396.047 175.435 370.447 206.306 368.188L250.729 413.365C252.235 414.87 253.741 415.623 256 415.623C258.259 415.623 259.765 414.87 261.271 413.365L305.694 368.188C336.565 370.447 361.412 396.8 361.412 427.67V481.882H325.271V439.717C325.271 435.2 322.259 432.188 317.741 432.188C313.224 432.188 310.212 435.2 310.212 439.717V481.882H201.788V439.717C201.788 435.2 198.776 432.188 194.259 432.188C189.741 432.188 186.729 435.2 186.729 439.717V481.882H150.588V427.67ZM459.294 408.847C463.812 408.847 466.824 405.835 466.824 401.317V351.623L482.635 367.435C485.647 370.447 490.165 370.447 493.176 367.435C496.188 364.423 496.188 359.906 493.176 356.894L464.565 328.282C461.553 325.27 457.035 325.27 454.024 328.282L425.412 356.894C422.4 359.906 422.4 364.423 425.412 367.435C428.424 370.447 432.941 370.447 435.953 367.435L451.765 351.623V401.317C451.765 405.082 454.776 408.847 459.294 408.847ZM27.8588 367.435L43.6706 351.623V401.317C43.6706 405.835 46.6824 408.847 51.2 408.847C55.7177 408.847 58.7294 405.835 58.7294 401.317V351.623L74.5412 367.435C77.553 370.447 82.0706 370.447 85.0824 367.435C88.0941 364.423 88.0941 359.906 85.0824 356.894L56.4706 328.282C53.4588 325.27 48.9412 325.27 45.9294 328.282L17.3177 356.894C14.3059 359.906 14.3059 364.423 17.3177 367.435C20.3294 370.447 24.8471 370.447 27.8588 367.435Z" fill="black"/>
<path d="M395.294 377.976C399.812 377.976 402.824 374.964 402.824 370.447V270.306L418.635 286.117C421.647 289.129 426.165 289.129 429.176 286.117C432.188 283.106 432.188 278.588 429.176 275.576L400.565 246.964C397.553 243.953 393.035 243.953 390.024 246.964L361.412 275.576C358.4 278.588 358.4 283.106 361.412 286.117C364.424 289.129 368.941 289.129 371.953 286.117L387.765 270.306V370.447C387.765 374.211 391.529 377.976 395.294 377.976ZM114.447 377.976C118.965 377.976 121.977 374.964 121.977 370.447V270.306L137.788 286.117C140.8 289.129 145.318 289.129 148.329 286.117C151.341 283.106 151.341 278.588 148.329 275.576L119.718 246.964C116.706 243.953 112.188 243.953 109.177 246.964L80.5647 275.576C77.553 278.588 77.553 283.106 80.5647 286.117C83.5765 289.129 88.0941 289.129 91.1059 286.117L106.918 270.306V370.447C106.918 374.211 110.682 377.976 114.447 377.976Z" fill="black"/>
</svg>
