<svg width="512" height="512" viewBox="0 0 512 512" fill="none" xmlns="http://www.w3.org/2000/svg">
<path d="M417.444 97.5H95M164.557 7.5H401.5C411.441 7.5 419.5 15.559 419.5 25.5V155.667M92.5 151.222V25.5C92.5 15.559 100.559 7.5 110.5 7.5H130.778M92.5 321V284.556M340.111 504.5H110.5C100.559 504.5 92.5 496.441 92.5 486.5V444.333M419.5 447.684V486.5C419.5 496.441 411.441 504.5 401.5 504.5H376.111M419.5 283.053V316" stroke="black" stroke-width="15" stroke-miterlimit="10" stroke-linecap="round" stroke-linejoin="round"/>
<path d="M237.356 67.5C245.64 67.5 252.356 60.7843 252.356 52.5C252.356 44.2157 245.64 37.5 237.356 37.5C229.072 37.5 222.356 44.2157 222.356 52.5C222.356 60.7843 229.072 67.5 237.356 67.5Z" stroke="black" stroke-width="15" stroke-miterlimit="10" stroke-linecap="round" stroke-linejoin="round"/>
<path d="M299.856 67.5C308.14 67.5 314.856 60.7843 314.856 52.5C314.856 44.2157 308.14 37.5 299.856 37.5C291.572 37.5 284.856 44.2157 284.856 52.5C284.856 60.7843 291.572 67.5 299.856 67.5Z" stroke="black" stroke-width="15" stroke-miterlimit="10" stroke-linecap="round" stroke-linejoin="round"/>
<path d="M362.356 67.5C370.64 67.5 377.356 60.7843 377.356 52.5C377.356 44.2157 370.64 37.5 362.356 37.5C354.072 37.5 347.356 44.2157 347.356 52.5C347.356 60.7843 354.072 67.5 362.356 67.5Z" stroke="black" stroke-width="15" stroke-miterlimit="10" stroke-linecap="round" stroke-linejoin="round"/>
<path d="M255.785 188.053H391.912M255.785 218.053H440.5M255.785 248.053H296.5" stroke="black" stroke-width="15" stroke-miterlimit="10" stroke-linecap="round" stroke-linejoin="round"/>
<path d="M98.5 233.619C111.755 233.619 122.5 222.874 122.5 209.619C122.5 196.364 111.755 185.619 98.5 185.619C85.2452 185.619 74.5 196.364 74.5 209.619C74.5 222.874 85.2452 233.619 98.5 233.619Z" stroke="black" stroke-width="15" stroke-miterlimit="10" stroke-linecap="round" stroke-linejoin="round"/>
<path d="M56.3831 263.981C62.2501 246.345 78.8921 233.622 98.5001 233.622C118.392 233.622 135.231 246.716 140.865 264.749" stroke="black" stroke-width="15" stroke-miterlimit="10" stroke-linecap="round" stroke-linejoin="round"/>
<path d="M98.5 283.053C134.399 283.053 163.5 253.952 163.5 218.053C163.5 182.155 134.399 153.053 98.5 153.053C62.6015 153.053 33.5 182.155 33.5 218.053C33.5 253.952 62.6015 283.053 98.5 283.053Z" stroke="black" stroke-width="15" stroke-miterlimit="10" stroke-linecap="round" stroke-linejoin="round"/>
<path d="M70.7849 352.684H206.912M70.7849 382.684H255.5M70.7849 412.684H111.5M468.829 278.053H228.171C222.83 278.053 218.5 273.723 218.5 268.382V167.724C218.5 162.383 222.83 158.053 228.171 158.053H468.828C474.169 158.053 478.499 162.383 478.499 167.724V268.381C478.499 269.651 478.249 270.909 477.763 272.082C477.278 273.256 476.565 274.322 475.667 275.22C474.769 276.118 473.703 276.831 472.53 277.317C471.357 277.803 470.099 278.053 468.829 278.053Z" stroke="black" stroke-width="15" stroke-miterlimit="10" stroke-linecap="round" stroke-linejoin="round"/>
<path d="M413.5 398.251C426.755 398.251 437.5 387.506 437.5 374.251C437.5 360.996 426.755 350.251 413.5 350.251C400.245 350.251 389.5 360.996 389.5 374.251C389.5 387.506 400.245 398.251 413.5 398.251Z" stroke="black" stroke-width="15" stroke-miterlimit="10" stroke-linecap="round" stroke-linejoin="round"/>
<path d="M371.01 429.787C376.517 411.544 393.459 398.254 413.5 398.254C433.355 398.254 450.168 411.299 455.833 429.28" stroke="black" stroke-width="15" stroke-miterlimit="10" stroke-linecap="round" stroke-linejoin="round"/>
<path d="M413.5 447.684C449.399 447.684 478.5 418.583 478.5 382.684C478.5 346.786 449.399 317.684 413.5 317.684C377.601 317.684 348.5 346.786 348.5 382.684C348.5 418.583 377.601 447.684 413.5 447.684Z" stroke="black" stroke-width="15" stroke-miterlimit="10" stroke-linecap="round" stroke-linejoin="round"/>
<path d="M283.829 442.684H43.171C37.83 442.684 33.5 438.354 33.5 433.013V332.356C33.5 327.015 37.83 322.685 43.171 322.685H283.828C289.169 322.685 293.499 327.015 293.499 332.356V433.013C293.5 438.354 289.17 442.684 283.829 442.684Z" stroke="black" stroke-width="15" stroke-miterlimit="10" stroke-linecap="round" stroke-linejoin="round"/>
</svg>
