<svg width="512" height="512" viewBox="0 0 512 512" fill="none" xmlns="http://www.w3.org/2000/svg">
<path d="M273.235 -0.000134275H51.3689C23.1029 0.0278657 0.196945 22.9349 0.168945 51.1999V460.8C0.196945 489.065 23.1029 511.972 51.3689 512H341.502C349.313 511.973 357.015 510.163 364.021 506.709C370.188 510.132 377.115 511.951 384.168 512C407.72 511.972 426.806 492.886 426.835 469.333H495.102C498.183 469.394 501.219 468.58 503.856 466.985C506.494 465.39 508.624 463.079 510.001 460.322C511.487 457.262 512.086 453.848 511.732 450.466C511.377 447.083 510.083 443.867 507.996 441.182C482.152 405.426 468.641 362.233 469.502 318.123V307.2C469.439 273.293 449.356 242.623 418.302 229.009V221.867C418.347 206.315 407.786 192.733 392.702 188.945V119.467C392.568 117.219 391.681 115.082 390.184 113.4L279.251 2.46587C278.54 1.71134 277.688 1.10443 276.742 0.679866C275.64 0.188569 274.44 -0.0440364 273.235 -0.000134275ZM384.169 494.933C370.031 494.933 358.569 483.471 358.569 469.333H409.77C409.769 483.472 398.307 494.933 384.169 494.933ZM452.435 307.2V318.123C451.556 365.923 466.26 412.71 494.325 451.414C494.514 451.678 494.669 451.964 494.786 452.267H383.827L350.94 452.395C350.588 452.374 350.234 452.374 349.882 452.395L273.236 452.694C273.199 452.461 273.217 452.222 273.288 451.997C273.359 451.772 273.482 451.567 273.646 451.397C278.49 444.817 282.922 437.943 286.915 430.815C287.15 430.473 287.353 430.11 287.521 429.731C293.557 418.997 298.624 407.745 302.659 396.11C302.768 395.861 302.859 395.604 302.932 395.342C311.39 370.48 315.658 344.385 315.561 318.124V307.2C315.602 278.25 333.878 252.467 361.18 242.842C361.543 242.74 361.9 242.615 362.247 242.467C369.203 240.135 376.491 238.942 383.828 238.934H384.17C421.842 239.004 452.365 269.527 452.435 307.2ZM298.494 307.2H170.835C168.572 307.2 166.401 306.301 164.801 304.701C163.201 303.1 162.302 300.93 162.302 298.667C162.3 297.53 162.531 296.404 162.98 295.359C163.429 294.315 164.087 293.372 164.913 292.591C165.683 291.803 166.605 291.179 167.623 290.757C168.64 290.334 169.733 290.122 170.835 290.133H300.2C299.068 295.751 298.496 301.468 298.494 307.2ZM274.507 418.133H170.835C168.572 418.133 166.401 417.234 164.801 415.634C163.201 414.033 162.302 411.863 162.302 409.6C162.3 408.463 162.531 407.337 162.98 406.292C163.429 405.247 164.087 404.305 164.913 403.524C165.683 402.736 166.605 402.112 167.623 401.69C168.64 401.267 169.733 401.055 170.835 401.066H282.622C280.205 406.888 277.497 412.584 274.507 418.133ZM401.235 221.867V223.574C395.617 222.441 389.899 221.869 384.168 221.867H383.826C378.211 221.865 372.61 222.411 367.101 223.497V221.867C367.101 212.441 374.742 204.8 384.168 204.8C393.594 204.8 401.235 212.441 401.235 221.867ZM281.769 29.1409L363.57 110.933H315.903C297.052 110.933 281.77 95.6509 281.77 76.7999L281.769 29.1409ZM17.2349 51.1999C17.2349 32.3489 32.5169 17.0669 51.3679 17.0669H264.701V76.7999C264.729 105.065 287.636 127.972 315.901 128H375.634V188.945C360.609 192.824 350.092 206.349 350.034 221.867V228.839C330.206 237.474 314.361 253.267 305.661 273.067H170.835C156.729 273.146 145.314 284.561 145.235 298.667C145.235 312.805 156.697 324.267 170.835 324.267H298.272C297.896 344.514 294.737 364.613 288.885 384H170.835C156.729 384.079 145.314 395.494 145.235 409.6C145.235 423.738 156.697 435.2 170.835 435.2H264.079C262.714 437.188 261.451 439.253 260 441.173C257.912 443.858 256.618 447.074 256.264 450.457C255.909 453.839 256.509 457.253 257.995 460.313C259.37 463.073 261.5 465.385 264.137 466.982C266.775 468.579 269.811 469.394 272.894 469.333H341.502C341.513 478.16 344.285 486.762 349.429 493.935C346.834 494.575 344.174 494.91 341.502 494.933H51.3689C32.5179 494.933 17.2359 479.651 17.2359 460.8L17.2349 51.1999Z" fill="black"/>
<path fill-rule="evenodd" clip-rule="evenodd" d="M51.3689 93.867C53.632 93.867 55.8024 92.968 57.4027 91.3677C59.0029 89.7675 59.9019 87.5971 59.9019 85.334V59.734H85.5019C87.765 59.734 89.9354 58.835 91.5357 57.2347C93.1359 55.6345 94.0349 53.4641 94.0349 51.201C94.0349 48.9379 93.1359 46.7675 91.5357 45.1672C89.9354 43.567 87.765 42.668 85.5019 42.668H51.3689C49.1058 42.668 46.9354 43.567 45.3352 45.1672C43.7349 46.7675 42.8359 48.9379 42.8359 51.201V85.334C42.8359 87.5971 43.7349 89.7675 45.3352 91.3677C46.9354 92.968 49.1058 93.867 51.3689 93.867Z" fill="black"/>
<path d="M85.502 230.4C109.066 230.4 128.169 211.297 128.169 187.733C128.169 164.169 109.066 145.066 85.502 145.066C61.938 145.066 42.835 164.169 42.835 187.733C42.864 211.286 61.95 230.372 85.502 230.4ZM85.502 162.133C99.64 162.133 111.102 173.595 111.102 187.733C111.102 201.872 99.64 213.333 85.502 213.333C71.364 213.333 59.902 201.871 59.902 187.733C59.902 173.595 71.363 162.133 85.502 162.133ZM85.502 341.333C109.066 341.333 128.169 322.23 128.169 298.666C128.169 275.102 109.066 255.999 85.502 255.999C61.938 255.999 42.835 275.102 42.835 298.666C42.864 322.219 61.95 341.305 85.502 341.333ZM85.502 273.067C99.64 273.067 111.102 284.529 111.102 298.667C111.102 312.805 99.64 324.267 85.502 324.267C71.364 324.267 59.902 312.805 59.902 298.667C59.902 284.528 71.363 273.067 85.502 273.067ZM85.502 452.267C109.066 452.267 128.169 433.164 128.169 409.6C128.169 386.036 109.066 366.933 85.502 366.933C61.938 366.933 42.835 386.036 42.835 409.6C42.864 433.152 61.95 452.238 85.502 452.267ZM85.502 384C99.64 384 111.102 395.462 111.102 409.6C111.102 423.738 99.64 435.2 85.502 435.2C71.364 435.2 59.902 423.738 59.902 409.6C59.902 395.462 71.363 384 85.502 384ZM170.835 213.333H324.435C338.573 213.333 350.035 201.871 350.035 187.733C350.035 173.595 338.573 162.133 324.435 162.133H170.835C156.697 162.133 145.235 173.595 145.235 187.733C145.235 201.872 156.697 213.333 170.835 213.333ZM170.835 179.2H324.435C326.698 179.2 328.868 180.099 330.469 181.699C332.069 183.299 332.968 185.47 332.968 187.733C332.968 189.996 332.069 192.166 330.469 193.767C328.868 195.367 326.698 196.266 324.435 196.266H170.835C168.572 196.266 166.401 195.367 164.801 193.767C163.201 192.166 162.302 189.996 162.302 187.733C162.302 185.47 163.201 183.299 164.801 181.699C166.401 180.099 168.572 179.2 170.835 179.2Z" fill="black"/>
<path fill-rule="evenodd" clip-rule="evenodd" d="M332.969 307.2C332.969 309.463 333.868 311.633 335.468 313.234C337.069 314.834 339.239 315.733 341.502 315.733C343.765 315.733 345.935 314.834 347.536 313.234C349.136 311.633 350.035 309.463 350.035 307.2C350.035 288.349 365.317 273.067 384.168 273.067C388.881 273.067 392.701 269.247 392.701 264.534C392.701 259.821 388.881 256.001 384.168 256.001C355.903 256.028 332.997 278.935 332.969 307.2Z" fill="black"/>
</svg>
