<svg width="512" height="512" viewBox="0 0 512 512" fill="none" xmlns="http://www.w3.org/2000/svg">
<path d="M433.258 139.522H287.34M433.258 178.885H287.34M433.258 218.248H287.34M433.258 314.812H287.34M433.258 354.175H287.34M433.258 393.538H287.34M107.825 37.5859H109.43M137.109 37.5859H138.714M166.393 37.5859H167.998M88.77 242.963H237.196C242.735 242.963 247.225 238.473 247.225 232.934V124.837C247.225 119.298 242.735 114.808 237.196 114.808H88.77C83.231 114.808 78.741 119.298 78.741 124.837V232.934C78.742 238.473 83.232 242.963 88.77 242.963Z" stroke="black" stroke-width="15" stroke-miterlimit="10" stroke-linecap="round" stroke-linejoin="round"/>
<path d="M78.7419 200.916L112.448 167.21C112.914 166.744 113.466 166.375 114.075 166.123C114.683 165.871 115.335 165.741 115.993 165.741C116.652 165.741 117.304 165.871 117.912 166.123C118.521 166.375 119.073 166.744 119.539 167.21L168.754 216.425C169.22 216.89 169.772 217.26 170.381 217.512C170.989 217.764 171.641 217.893 172.299 217.893C172.958 217.893 173.61 217.764 174.218 217.512C174.827 217.26 175.379 216.89 175.845 216.425L199.553 192.717C200.019 192.251 200.571 191.882 201.18 191.63C201.788 191.378 202.44 191.248 203.098 191.248C203.757 191.248 204.409 191.378 205.017 191.63C205.626 191.882 206.178 192.251 206.644 192.717L247.207 233.28" stroke="black" stroke-width="15" stroke-miterlimit="10" stroke-linejoin="round"/>
<path d="M170.96 169.752C178.714 169.752 185 163.466 185 155.712C185 147.958 178.714 141.672 170.96 141.672C163.206 141.672 156.92 147.958 156.92 155.712C156.92 163.466 163.206 169.752 170.96 169.752Z" stroke="black" stroke-width="15" stroke-miterlimit="10" stroke-linecap="round" stroke-linejoin="round"/>
<path d="M78.742 343V408.224C78.742 413.763 83.232 418.253 88.771 418.253H237.197C242.736 418.253 247.226 413.763 247.226 408.224V300.127C247.226 294.588 242.736 290.098 237.197 290.098H88.77C83.231 290.098 78.741 294.588 78.741 300.127V308" stroke="black" stroke-width="15" stroke-miterlimit="10" stroke-linecap="round" stroke-linejoin="round"/>
<path d="M78.7419 376.206L112.448 342.5C112.914 342.034 113.466 341.665 114.075 341.413C114.683 341.161 115.335 341.031 115.993 341.031C116.652 341.031 117.304 341.161 117.912 341.413C118.521 341.665 119.073 342.034 119.539 342.5L168.754 391.715C169.22 392.18 169.772 392.55 170.381 392.802C170.989 393.054 171.641 393.184 172.299 393.184C172.958 393.184 173.61 393.054 174.218 392.802C174.827 392.55 175.379 392.18 175.845 391.715L199.553 368.007C200.019 367.541 200.571 367.172 201.18 366.92C201.788 366.668 202.44 366.538 203.098 366.538C203.757 366.538 204.409 366.668 205.017 366.92C205.626 367.172 206.178 367.541 206.644 368.007L247.207 408.57" stroke="black" stroke-width="15" stroke-miterlimit="10" stroke-linejoin="round"/>
<path d="M170.96 345.042C178.714 345.042 185 338.756 185 331.002C185 323.248 178.714 316.962 170.96 316.962C163.206 316.962 156.92 323.248 156.92 331.002C156.92 338.756 163.206 345.042 170.96 345.042Z" stroke="black" stroke-width="15" stroke-miterlimit="10" stroke-linecap="round" stroke-linejoin="round"/>
<path d="M316.609 7.5H93.785C85.477 7.5 78.7419 14.235 78.7419 22.543V52.629C78.7419 60.937 85.477 67.672 93.785 67.672H418.216C426.524 67.672 433.259 60.937 433.259 52.629V22.543C433.259 14.235 426.524 7.5 418.216 7.5H351.61M343 465.388H93.785C85.477 465.388 78.7419 472.123 78.7419 480.431V489.457C78.7419 497.765 85.477 504.5 93.785 504.5H418.216C426.524 504.5 433.259 497.765 433.259 489.457V480.431C433.259 472.123 426.524 465.388 418.216 465.388H378" stroke="black" stroke-width="15" stroke-miterlimit="10" stroke-linecap="round" stroke-linejoin="round"/>
<path d="M373.086 7.5V67.673" stroke="black" stroke-width="15" stroke-miterlimit="10" stroke-linejoin="round"/>
</svg>
