<svg width="512" height="512" viewBox="0 0 512 512" fill="none" xmlns="http://www.w3.org/2000/svg">
<path d="M496 232V136C496 129.635 493.471 123.53 488.971 119.029C484.47 114.529 478.365 112 472 112H463.112C471.08 104.224 476.55 94.2486 478.822 83.349C481.094 72.4493 480.065 61.1198 475.867 50.8076C471.669 40.4953 464.492 31.6686 455.254 25.4547C446.015 19.2408 435.134 15.9219 424 15.9219C412.866 15.9219 401.985 19.2408 392.746 25.4547C383.508 31.6686 376.331 40.4953 372.133 50.8076C367.935 61.1198 366.906 72.4493 369.178 83.349C371.45 94.2486 376.92 104.224 384.888 112H376C372.246 112.01 368.547 112.903 365.202 114.607C361.857 116.311 358.96 118.778 356.744 121.808C327.71 99.9268 292.356 88.0628 256 87.9999C248.96 88.0296 241.93 88.5106 234.952 89.4399C232.73 86.5166 229.865 84.1443 226.578 82.5072C223.291 80.8701 219.672 80.0121 216 79.9999H208V71.9999C208 65.6347 205.471 59.5303 200.971 55.0294C196.47 50.5285 190.365 47.9999 184 47.9999H104C101.878 47.9999 99.8434 47.1571 98.3431 45.6568C96.8429 44.1565 96 42.1217 96 39.9999C96 33.6347 93.4714 27.5303 88.9706 23.0294C84.4697 18.5285 78.3652 15.9999 72 15.9999H40C33.6348 15.9999 27.5303 18.5285 23.0294 23.0294C18.5286 27.5303 16 33.6347 16 39.9999V216C16 222.365 18.5286 228.47 23.0294 232.971C27.5303 237.471 33.6348 240 40 240H88.88C88.3247 245.316 88.031 250.655 88 256C88 261.464 88.344 266.8 88.848 272.04C88.56 272.04 88.288 272 88 272C76.8701 271.988 65.9897 275.297 56.7504 281.503C47.511 287.708 40.3326 296.529 36.1333 306.836C31.9339 317.143 30.9044 328.469 33.1765 339.364C35.4486 350.26 40.919 360.23 48.888 368H40C33.6348 368 27.5303 370.529 23.0294 375.029C18.5286 379.53 16 385.635 16 392V488C16 490.122 16.8429 492.157 18.3431 493.657C19.8434 495.157 21.8783 496 24 496H152C154.122 496 156.157 495.157 157.657 493.657C159.157 492.157 160 490.122 160 488V393.92C185.55 411.697 215.54 422.023 246.619 423.744C277.698 425.464 308.643 418.512 336 403.664V488C336 490.122 336.843 492.157 338.343 493.657C339.843 495.157 341.878 496 344 496H488C490.122 496 492.157 495.157 493.657 493.657C495.157 492.157 496 490.122 496 488V344C496 341.878 495.156 339.844 493.656 338.344L445.656 290.344C444.156 288.844 442.122 288 440 288H420.936C422.968 277.454 423.994 266.74 424 256C424 250.696 423.648 245.344 423.12 240H488C490.122 240 492.157 239.157 493.657 237.657C495.157 236.157 496 234.122 496 232ZM384 71.9999C384 64.0887 386.346 56.3551 390.741 49.7771C395.136 43.1992 401.384 38.0723 408.693 35.0448C416.002 32.0173 424.044 31.2251 431.804 32.7685C439.563 34.3119 446.69 38.1216 452.284 43.7157C457.878 49.3098 461.688 56.4371 463.231 64.1963C464.775 71.9556 463.983 79.9982 460.955 87.3073C457.928 94.6163 452.801 100.863 446.223 105.259C439.645 109.654 431.911 112 424 112C413.395 111.987 403.228 107.769 395.73 100.27C388.231 92.7715 384.013 82.6047 384 71.9999ZM256 408C241.52 408 226.168 389.248 215.2 357.688C241.876 350.136 270.124 350.136 296.8 357.688C285.848 389.224 270.488 408 256 408ZM221.48 404.088C202.306 399.665 184.191 391.51 168.168 380.088C178.067 373.08 188.77 367.284 200.048 362.824C204.852 377.673 212.095 391.618 221.48 404.088ZM256 336C240.604 336.028 225.287 338.182 210.48 342.4C203.926 316.772 200.464 290.451 200.168 264H311.832C311.538 290.432 308.081 316.734 301.536 342.344C286.72 338.15 271.398 336.016 256 336ZM200.24 248C200.296 245.32 200.368 242.656 200.48 240H216C222.365 240 228.47 237.471 232.971 232.971C237.471 228.47 240 222.365 240 216V183.152C245.317 183.682 250.656 183.965 256 184C272.038 183.962 287.988 181.621 303.36 177.048C308.671 200.335 311.511 224.117 311.832 248H200.24ZM256 168C250.654 167.961 245.314 167.651 240 167.072V111.2C244.282 106.937 249.969 104.377 256 104C271.56 104 288.12 125.664 299.2 161.6C285.184 165.807 270.633 167.962 256 168ZM290.728 108.184C311.908 113.182 331.768 122.668 348.968 136C338.329 144.257 326.637 151.058 314.2 156.224C309.317 138.934 301.367 122.662 290.728 108.184ZM32 216V39.9999C32 37.8782 32.8429 35.8434 34.3431 34.3431C35.8434 32.8428 37.8783 31.9999 40 31.9999H72C74.1217 31.9999 76.1566 32.8428 77.6569 34.3431C79.1571 35.8434 80 37.8782 80 39.9999C80 46.3651 82.5286 52.4696 87.0294 56.9705C91.5303 61.4714 97.6348 63.9999 104 63.9999H184C186.122 63.9999 188.157 64.8428 189.657 66.3431C191.157 67.8434 192 69.8782 192 71.9999V79.9999H72C65.6348 79.9999 59.5303 82.5285 55.0294 87.0294C50.5286 91.5302 48 97.6347 48 104V216C48.0265 218.731 48.5245 221.438 49.472 224H40C37.8783 224 35.8434 223.157 34.3431 221.657C32.8429 220.157 32 218.122 32 216ZM64 216V104C64 101.878 64.8429 99.8434 66.3431 98.3431C67.8434 96.8428 69.8783 95.9999 72 95.9999H216C218.122 95.9999 220.157 96.8428 221.657 98.3431C223.157 99.8434 224 101.878 224 104V216C224 218.122 223.157 220.157 221.657 221.657C220.157 223.157 218.122 224 216 224H72C69.8783 224 67.8434 223.157 66.3431 221.657C64.8429 220.157 64 218.122 64 216ZM184.48 240C184.376 242.666 184.296 245.333 184.24 248H104.312C104.456 245.328 104.68 242.672 104.968 240H184.48ZM104.312 264H184.168C184.478 292.19 188.24 320.236 195.368 347.512C181.046 353.071 167.554 360.571 155.272 369.8C149.219 364.383 143.601 358.499 138.472 352.2C141.952 345.014 143.849 337.164 144.034 329.182C144.22 321.199 142.69 313.27 139.548 305.93C136.406 298.589 131.725 292.009 125.822 286.633C119.918 281.257 112.93 277.211 105.328 274.768C104.8 271.24 104.496 267.648 104.312 264ZM129.04 365.976C129.632 366.664 130.272 367.32 130.88 368H127.112C127.784 367.352 128.4 366.656 129.04 365.976ZM48 328C48 320.089 50.346 312.355 54.7412 305.777C59.1365 299.199 65.3836 294.072 72.6927 291.045C80.0017 288.017 88.0444 287.225 95.8036 288.769C103.563 290.312 110.69 294.122 116.284 299.716C121.878 305.31 125.688 312.437 127.231 320.196C128.775 327.956 127.983 335.998 124.955 343.307C121.928 350.616 116.801 356.863 110.223 361.259C103.645 365.654 95.9113 368 88 368C77.3952 367.987 67.2285 363.769 59.7298 356.27C52.2311 348.771 48.0127 338.605 48 328ZM144 480H32V392C32 389.878 32.8429 387.843 34.3431 386.343C35.8434 384.843 37.8783 384 40 384H136C138.122 384 140.157 384.843 141.657 386.343C143.157 387.843 144 389.878 144 392V480ZM290.608 404C299.972 391.523 307.201 377.579 312 362.736C320.344 366.068 328.376 370.134 336 374.888V385.12C322.005 393.856 306.67 400.234 290.608 404ZM352 480V304H432V344C432 346.122 432.843 348.157 434.343 349.657C435.843 351.157 437.878 352 440 352H480V480H352ZM448 315.312L468.688 336H448V315.312ZM344 288C341.878 288 339.843 288.843 338.343 290.343C336.843 291.843 336 293.878 336 296V356.344C329.76 352.941 323.31 349.94 316.688 347.36C323.783 320.131 327.526 292.137 327.832 264H407.752C407.32 272.072 406.25 280.097 404.552 288H344ZM407.688 248H327.832C327.506 222.321 324.384 196.754 318.52 171.752C330.326 167.034 341.558 160.989 352 153.736V232C352 234.122 352.843 236.157 354.343 237.657C355.843 239.157 357.878 240 360 240H407.032C407.32 242.672 407.544 245.328 407.688 248ZM480 224H368V136C368 133.878 368.843 131.843 370.343 130.343C371.843 128.843 373.878 128 376 128H472C474.122 128 476.157 128.843 477.657 130.343C479.157 131.843 480 133.878 480 136V224Z" fill="black"/>
<path d="M384 384H448V400H384V384ZM384 432H448V448H384V432Z" fill="black"/>
</svg>
