<svg width="512" height="512" viewBox="0 0 512 512" fill="none" xmlns="http://www.w3.org/2000/svg">
<path d="M148.042 236.722H191C195.143 236.722 198.5 233.364 198.5 229.222C198.5 225.08 195.143 221.722 191 221.722H148.042C143.899 221.722 140.542 225.08 140.542 229.222C140.542 233.364 143.899 236.722 148.042 236.722ZM148.042 273.07H322.512C326.655 273.07 330.012 269.712 330.012 265.57C330.012 261.428 326.655 258.07 322.512 258.07H148.042C143.899 258.07 140.542 261.428 140.542 265.57C140.542 269.712 143.899 273.07 148.042 273.07ZM322.512 294.417H276C271.857 294.417 268.5 297.775 268.5 301.917C268.5 306.059 271.857 309.417 276 309.417H322.512C324.501 309.417 326.409 308.627 327.815 307.22C329.222 305.813 330.012 303.906 330.012 301.917C330.012 299.928 329.222 298.02 327.815 296.613C326.409 295.207 324.501 294.417 322.512 294.417Z" fill="black"/>
<path d="M490.875 50.3538L393.797 1.83677C391.366 0.628681 388.688 0 385.974 0C383.259 0 380.581 0.628681 378.15 1.83677L281.07 50.3538H281.069C275.101 53.3368 271.393 59.3348 271.393 66.0078V79.9648H166C161.857 79.9648 158.5 83.3228 158.5 87.4648C158.5 91.6068 161.857 94.9648 166 94.9648H271.394V117.774C271.394 128.714 272.214 139.114 273.855 149.026H148.042C143.899 149.026 140.542 152.384 140.542 156.526C140.542 160.668 143.899 164.026 148.042 164.026H277.065C278.997 171.323 281.49 178.46 284.52 185.374H148.042C143.899 185.374 140.542 188.732 140.542 192.874C140.542 197.016 143.899 200.374 148.042 200.374H292.188C294.842 204.882 297.734 209.245 300.851 213.446C302.951 216.276 305.143 219.036 307.424 221.722H221C216.857 221.722 213.5 225.08 213.5 229.222C213.5 233.364 216.857 236.722 221 236.722H321.732C335.872 250.029 353.744 263.13 376.821 277.252C379.643 278.979 382.807 279.842 385.972 279.842C389.137 279.842 392.301 278.979 395.124 277.252C395.891 276.783 396.643 276.316 397.398 275.85V457.984H201.168V444C201.168 439.858 197.811 436.5 193.668 436.5C189.525 436.5 186.168 439.858 186.168 444V494.5C186.168 495.878 185.047 497 183.668 497H28.948C28.2852 496.999 27.6498 496.735 27.1811 496.267C26.7124 495.798 26.4488 495.163 26.448 494.5V386.473C26.448 385.095 27.569 383.973 28.948 383.973H183.668C185.047 383.973 186.168 385.095 186.168 386.473V409C186.168 413.142 189.525 416.5 193.668 416.5C197.811 416.5 201.168 413.142 201.168 409V386.473C201.168 384.966 200.956 383.51 200.596 382.114H322.512C326.655 382.114 330.012 378.756 330.012 374.614C330.012 370.472 326.655 367.114 322.512 367.114H177.068V345.766H322.511C326.654 345.766 330.011 342.408 330.011 338.266C330.011 334.124 326.654 330.766 322.511 330.766H176.754C176.08 323.409 174.249 316.204 171.328 309.418H249C253.143 309.418 256.5 306.06 256.5 301.918C256.5 297.776 253.143 294.418 249 294.418H162.533C149.592 277.495 129.208 266.551 106.308 266.551C94.333 266.551 83.05 269.551 73.153 274.824V94.9648H131C135.143 94.9648 138.5 91.6068 138.5 87.4648C138.5 83.3228 135.143 79.9648 131 79.9648H70.653C63.76 79.9648 58.153 85.5718 58.153 92.4648V285.529C44.26 298.457 35.548 316.882 35.548 337.311V368.972H28.948C19.299 368.972 11.448 376.823 11.448 386.472V494.5C11.448 504.149 19.299 512 28.948 512H183.668C193.317 512 201.168 504.149 201.168 494.5V472.983H399.899C406.792 472.983 412.399 467.376 412.399 460.483V266.215C439.095 248.35 457.578 231.674 471.094 213.446C490.915 186.716 500.551 155.421 500.551 117.775V66.0078C500.552 59.3358 496.844 53.3378 490.875 50.3538ZM132.069 368.973H80.548V337.312C80.548 323.107 92.105 311.551 106.309 311.551C120.513 311.551 132.07 323.107 132.07 337.312V368.973H132.069ZM50.548 337.312C50.548 306.565 75.563 281.551 106.309 281.551C137.055 281.551 162.069 306.565 162.069 337.312V368.973H147.07V337.312C147.07 314.836 128.785 296.551 106.309 296.551C83.833 296.551 65.548 314.836 65.548 337.312V368.973H50.548V337.312ZM485.552 117.775C485.552 189.851 447.956 227.337 387.296 264.457C386.897 264.698 386.439 264.826 385.973 264.826C385.507 264.826 385.049 264.698 384.65 264.457C323.989 227.336 286.393 189.851 286.393 117.775V66.0078C286.393 65.0538 286.923 64.1968 287.776 63.7708L384.855 15.2528C385.202 15.0801 385.585 14.9903 385.973 14.9903C386.36 14.9903 386.743 15.0801 387.09 15.2528L484.168 63.7698C484.585 63.976 484.935 64.295 485.18 64.6904C485.424 65.0858 485.553 65.5419 485.551 66.0068V117.775H485.552Z" fill="black"/>
<path d="M385.522 52.1299C343.672 52.1299 309.626 86.1769 309.626 128.026C309.626 169.875 343.673 203.922 385.522 203.922C417.539 203.922 446.272 183.662 457.02 153.507C457.688 151.633 457.584 149.571 456.732 147.774C455.879 145.977 454.348 144.592 452.474 143.924C450.6 143.256 448.538 143.36 446.741 144.212C444.944 145.065 443.559 146.596 442.891 148.47C434.266 172.665 411.211 188.921 385.522 188.921C351.944 188.921 324.626 161.603 324.626 128.025C324.626 94.4469 351.944 67.1289 385.522 67.1289C415.086 67.1289 440.293 88.2299 445.457 117.301C446.182 121.379 450.077 124.102 454.153 123.374C455.123 123.202 456.049 122.84 456.879 122.31C457.709 121.78 458.427 121.091 458.991 120.284C459.554 119.476 459.954 118.565 460.166 117.604C460.378 116.642 460.398 115.648 460.226 114.678C453.788 78.4349 422.371 52.1299 385.522 52.1299Z" fill="black"/>
<path d="M411.537 107.502L381.986 137.053L364.803 119.869C364.107 119.172 363.28 118.62 362.37 118.243C361.46 117.866 360.484 117.672 359.5 117.672C358.515 117.672 357.539 117.866 356.629 118.243C355.719 118.62 354.892 119.172 354.196 119.869C352.79 121.275 352 123.183 352 125.172C352 127.161 352.79 129.068 354.196 130.475L376.682 152.962C377.378 153.659 378.205 154.211 379.115 154.588C380.025 154.965 381.001 155.159 381.986 155.159C382.971 155.159 383.946 154.965 384.857 154.588C385.767 154.211 386.594 153.659 387.29 152.962L422.144 118.108C422.845 117.413 423.403 116.586 423.783 115.674C424.164 114.763 424.362 113.785 424.364 112.798C424.366 111.81 424.173 110.832 423.796 109.919C423.419 109.006 422.865 108.177 422.167 107.478C421.468 106.78 420.639 106.226 419.726 105.849C418.813 105.472 417.835 105.28 416.847 105.282C415.859 105.284 414.882 105.481 413.971 105.862C413.059 106.243 412.232 106.8 411.537 107.502Z" fill="black"/>
</svg>
