<svg width="498" height="498" viewBox="0 0 498 498" fill="none" xmlns="http://www.w3.org/2000/svg">
<path fill-rule="evenodd" clip-rule="evenodd" d="M275.119 445.722C258.867 449.362 242.262 451.194 225.607 451.185C101.106 451.185 0.0274658 350.107 0.0274658 225.607C0.0274658 101.106 101.106 0.0273438 225.607 0.0273438C350.107 0.0273438 451.185 101.106 451.185 225.607C451.185 242.614 449.297 259.184 445.722 275.119C447.728 275.207 449.628 276.044 451.047 277.464L472.99 299.406C474.137 300.553 474.909 302.02 475.206 303.614C475.504 305.208 475.311 306.855 474.655 308.338L468.072 323.197C472.186 330.52 475.411 338.309 477.676 346.397L492.825 352.228C494.34 352.811 495.643 353.839 496.562 355.177C497.481 356.515 497.973 358.1 497.973 359.723V390.762C497.973 392.385 497.481 393.97 496.562 395.308C495.643 396.646 494.34 397.674 492.825 398.257L477.672 404.089C475.394 412.159 472.17 419.933 468.068 427.247L474.655 442.115C475.311 443.598 475.504 445.245 475.207 446.839C474.91 448.434 474.137 449.9 472.99 451.047L451.047 472.99C449.901 474.137 448.434 474.909 446.839 475.207C445.245 475.504 443.598 475.311 442.115 474.654L427.261 468.074C419.947 472.185 412.168 475.408 404.089 477.673L398.257 492.825C397.674 494.34 396.646 495.643 395.308 496.562C393.97 497.481 392.385 497.972 390.762 497.972H359.724C358.1 497.973 356.515 497.481 355.177 496.562C353.839 495.643 352.811 494.34 352.228 492.825L346.397 477.675C338.315 475.4 330.53 472.175 323.207 468.068L308.338 474.654C306.855 475.311 305.208 475.503 303.614 475.206C302.02 474.909 300.553 474.137 299.406 472.99L277.464 451.047C276.044 449.628 275.207 447.728 275.119 445.722ZM427.329 282.374C432.407 264.318 435.122 245.276 435.122 225.607C435.122 109.971 341.241 16.0901 225.607 16.0901C109.971 16.0901 16.0902 109.971 16.0902 225.607C16.0902 341.241 109.971 435.122 225.607 435.122C245.276 435.122 264.318 432.406 282.374 427.329L282.408 427.255C278.299 419.941 275.071 412.166 272.792 404.093L257.628 398.257C256.113 397.674 254.811 396.646 253.892 395.308C252.973 393.97 252.482 392.385 252.482 390.762V379.09C244.959 380.399 237.351 381.154 229.718 381.351V405.062C229.718 409.495 226.12 413.093 221.686 413.093C217.254 413.093 213.655 409.495 213.655 405.062V380.952C134.591 374.943 71.9404 309.812 69.8613 229.718H46.1506C41.7183 229.718 38.1193 226.12 38.1193 221.686C38.1193 217.254 41.7183 213.655 46.1506 213.655H70.2608C76.2693 134.591 141.401 71.9403 221.495 69.8611V46.1505C221.495 41.7182 225.093 38.1191 229.526 38.1191C233.958 38.1191 237.557 41.7182 237.557 46.1505V70.2607C316.621 76.2692 379.272 141.401 381.351 221.494H405.062C409.495 221.494 413.093 225.093 413.093 229.526C413.093 233.958 409.495 237.557 405.062 237.557H380.951C380.572 242.559 379.95 247.54 379.09 252.481H390.762C392.386 252.481 393.971 252.974 395.31 253.893C396.648 254.812 397.677 256.116 398.259 257.632L404.092 272.812C412.165 275.08 419.939 278.302 427.25 282.409L427.329 282.374ZM252.482 362.756V359.723C252.481 358.1 252.973 356.515 253.892 355.177C254.81 353.839 256.113 352.811 257.628 352.228L272.789 346.393C275.069 338.311 278.298 330.526 282.41 323.204L276.27 309.395H136.086C134.959 309.395 133.844 309.158 132.815 308.699C131.785 308.24 130.864 307.57 130.111 306.731C129.358 305.893 128.789 304.905 128.443 303.833C128.097 302.76 127.98 301.627 128.101 300.506C132.212 262.223 158.335 230.525 193.557 218.344C180.525 208.558 172.071 192.977 172.071 175.488C172.071 145.995 196.113 121.928 225.607 121.928C255.126 121.928 279.166 145.996 279.166 175.488C279.166 192.977 270.712 208.56 257.673 218.346C286.532 228.324 309.273 251.395 318.806 280.454L323.203 282.409C330.516 278.301 338.293 275.078 346.369 272.81L352.23 257.621C352.814 256.108 353.843 254.807 355.18 253.89C356.518 252.972 358.102 252.481 359.724 252.481H362.756C363.71 247.592 364.408 242.613 364.838 237.557H345.392C340.959 237.557 337.36 233.958 337.36 229.526C337.36 225.093 340.959 221.494 345.392 221.494H365.282C363.219 150.268 307.749 92.3319 237.557 86.3756V105.821C237.557 110.253 233.958 113.852 229.526 113.852C225.093 113.852 221.495 110.253 221.495 105.821V85.9299C150.268 87.993 92.332 143.465 86.3758 213.655H105.821C110.253 213.655 113.852 217.254 113.852 221.686C113.852 226.12 110.253 229.718 105.821 229.718H85.93C87.9931 300.944 143.465 358.88 213.655 364.836V345.391C213.655 340.959 217.254 337.36 221.686 337.36C226.12 337.36 229.718 340.959 229.718 345.391V365.282C237.362 365.063 244.975 364.218 252.482 362.756ZM283.538 293.332L299.406 277.464C299.642 277.228 299.889 277.01 300.147 276.809C287.179 248.617 258.683 229.047 225.607 229.047C186.41 229.047 153.632 256.559 145.524 293.332H283.538ZM225.607 212.984C246.273 212.984 263.103 196.134 263.103 175.488C263.103 154.84 246.273 137.99 225.607 137.99C204.96 137.99 188.133 154.841 188.133 175.488C188.133 196.133 204.96 212.984 225.607 212.984ZM390.579 282.428L385.244 268.544H365.233L359.871 282.44C359.402 283.656 358.643 284.739 357.661 285.597C356.679 286.455 355.503 287.06 354.235 287.362C344.941 289.569 336.06 293.25 327.928 298.263C326.817 298.948 325.555 299.352 324.252 299.439C322.95 299.526 321.645 299.295 320.452 298.764L306.863 292.723L292.723 306.863L298.764 320.452C299.295 321.645 299.527 322.949 299.439 324.252C299.352 325.555 298.948 326.817 298.263 327.928C293.245 336.078 289.553 344.974 287.327 354.283C287.023 355.549 286.416 356.722 285.558 357.701C284.7 358.681 283.617 359.437 282.402 359.904L268.544 365.238V385.247L282.402 390.58C283.616 391.047 284.698 391.803 285.556 392.781C286.414 393.759 287.021 394.931 287.326 396.196C289.563 405.495 293.235 414.393 298.256 422.515C298.944 423.627 299.35 424.891 299.439 426.195C299.527 427.5 299.296 428.807 298.764 430.002L292.723 443.59L306.869 457.736L320.462 451.716C321.651 451.189 322.95 450.959 324.247 451.045C325.545 451.131 326.802 451.531 327.91 452.211C336.063 457.205 344.932 460.912 354.26 463.121C355.531 463.422 356.709 464.029 357.693 464.888C358.676 465.747 359.435 466.833 359.904 468.052L365.238 481.91H385.247L390.58 468.052C391.049 466.834 391.808 465.749 392.79 464.89C393.773 464.031 394.95 463.425 396.219 463.123C405.511 460.922 414.389 457.243 422.515 452.228C423.626 451.541 424.887 451.135 426.19 451.046C427.493 450.957 428.798 451.187 429.992 451.716L443.584 457.736L457.736 443.584L451.716 429.992C451.189 428.803 450.959 427.504 451.045 426.206C451.131 424.909 451.531 423.652 452.211 422.543C457.206 414.39 460.913 405.52 463.123 396.219C463.425 394.949 464.032 393.773 464.89 392.79C465.749 391.808 466.834 391.049 468.052 390.58L481.91 385.247V365.238L468.052 359.904C466.833 359.435 465.747 358.676 464.888 357.692C464.029 356.709 463.422 355.531 463.121 354.26C460.919 344.957 457.24 336.066 452.222 327.928C451.538 326.818 451.134 325.558 451.046 324.258C450.958 322.957 451.188 321.654 451.716 320.462L457.736 306.869L443.59 292.723L430.002 298.764C428.809 299.295 427.505 299.526 426.202 299.439C424.899 299.352 423.637 298.948 422.526 298.263C414.394 293.25 405.513 289.57 396.219 287.362C394.949 287.06 393.771 286.453 392.788 285.593C391.806 284.734 391.047 283.647 390.579 282.428ZM375.227 313.058C409.576 313.058 437.427 340.877 437.427 375.227C437.427 409.575 409.575 437.427 375.227 437.427C340.877 437.427 313.058 409.576 313.058 375.227C313.058 340.876 340.876 313.058 375.227 313.058ZM375.227 329.121C349.752 329.121 329.121 349.751 329.121 375.227C329.121 400.704 349.75 421.364 375.227 421.364C400.705 421.364 421.364 400.705 421.364 375.227C421.364 349.749 400.704 329.121 375.227 329.121Z" fill="black"/>
</svg>
